<svg xmlns="http://www.w3.org/2000/svg" width="591.138" height="574.493" viewBox="0 0 591.138 574.493"><g transform="translate(0.5 0.5)" opacity="0.15"><path d="M-206.406-24.8A271.049,271.049,0,0,0-244.695.131q10.577-6.737,21.8-12.495C-217.576-16.726-212.055-20.851-206.406-24.8Z" transform="translate(370.376 73.701)" fill="#009edd" stroke="#707070" stroke-width="1"/><path d="M7.223,342.12c-1.834,1.5-3.724,2.942-5.6,4.4q5.017-3.2,9.886-6.594C10.1,340.681,8.651,341.387,7.223,342.12Z" transform="translate(435.438 170.038)" fill="#009edd" stroke="#707070" stroke-width="1"/><path d="M-323.334,208.963A270.449,270.449,0,0,1-218.435-5.079c-75.531,48.093-125.681,132.5-125.681,228.68,0,149.658,121.323,270.981,270.981,270.981A269.72,269.72,0,0,0,92.947,437.644a269.6,269.6,0,0,1-145.3,42.3C-202.012,479.944-323.334,358.622-323.334,208.963Z" transform="translate(344.116 78.911)" fill="none" stroke="#009edd" stroke-miterlimit="10" stroke-width="1"/><path d="M-29.3,465.663a270.309,270.309,0,0,1-95.084-17.2C-229.106,426.8-307.824,334.052-307.824,222.911a230.179,230.179,0,0,1,10.647-69.357,270.657,270.657,0,0,1,96.2-168.518q-11.212,5.755-21.8,12.495a270.449,270.449,0,0,0-104.9,214.042c0,149.659,121.321,270.981,270.981,270.981a269.6,269.6,0,0,0,145.3-42.3c1.873-1.456,3.763-2.894,5.6-4.4A269.706,269.706,0,0,1-29.3,465.663Z" transform="translate(348.458 76.3)" fill="none" stroke="#0057a5" stroke-miterlimit="10" stroke-width="1"/><path d="M-304.43,159.471a272.986,272.986,0,0,1,3.1-41.127A230.18,230.18,0,0,0-311.972,187.7c0,111.14,78.718,203.887,183.438,225.554C-231.28,374.741-304.43,275.665-304.43,159.471Z" transform="translate(352.606 111.511)" fill="none" stroke="#ad0a22" stroke-miterlimit="10" stroke-width="1"/><path d="M96.693,365.13A209.841,209.841,0,0,1-45.742,420.624c-116.323,0-210.624-94.3-210.624-210.624S-162.065-.621-45.742-.621A212.114,212.114,0,0,1-12.989,1.927,230.143,230.143,0,0,0-83.2-9.009c-103.045,0-190.267,67.672-219.7,160.991a272.982,272.982,0,0,0-3.1,41.127c0,116.194,73.15,215.269,175.9,253.784A231.321,231.321,0,0,0-83.2,451.685,229.864,229.864,0,0,0,96.693,365.13Z" transform="translate(354.182 77.873)" fill="none" stroke="#cd0024" stroke-miterlimit="10" stroke-width="1"/><path d="M-23.361.174A212.114,212.114,0,0,0-56.114-2.374c-116.323,0-210.624,94.3-210.624,210.622s94.3,210.624,210.624,210.624A209.841,209.841,0,0,0,86.321,363.378a229.314,229.314,0,0,0,50.454-143.791C136.775,116.859,69.513,29.872-23.361.174Z" transform="translate(364.554 79.625)" fill="none" stroke="#707070" stroke-width="1"/><path d="M-59.22-63.484a269.641,269.641,0,0,0-155.186,48.9,269.723,269.723,0,0,1,127.792-32c149.658,0,270.981,121.321,270.981,270.98,0,91.918-45.808,173.091-115.8,222.088,85.214-45.663,143.19-135.538,143.19-238.981C211.761,57.84,90.438-63.484-59.22-63.484Z" transform="translate(378.377 63.484)" fill="none" stroke="#009edd" stroke-miterlimit="10" stroke-width="1"/><path d="M187.813,220.86C187.813,71.2,66.491-50.12-83.168-50.12a269.723,269.723,0,0,0-127.793,32c-5.649,3.953-11.17,8.078-16.492,12.44a269.7,269.7,0,0,1,123.5-29.806c149.659,0,270.981,121.321,270.981,270.981a270.425,270.425,0,0,1-99.3,209.645c1.428-.733,2.873-1.439,4.288-2.2C142,393.951,187.813,312.777,187.813,220.86Z" transform="translate(374.931 67.014)" fill="none" stroke="#0057a5" stroke-miterlimit="10" stroke-width="1"/><path d="M187.131,232.44C187.131,82.78,65.81-38.541-83.85-38.541a269.7,269.7,0,0,0-123.5,29.806,270.663,270.663,0,0,0-96.2,168.518C-274.117,66.463-186.894-1.209-83.85-1.209A230.143,230.143,0,0,1-13.637,9.727C87.128,25.463,164.231,112.62,164.231,217.8A210.043,210.043,0,0,1,96.044,372.931,229.864,229.864,0,0,1-83.85,459.486a231.232,231.232,0,0,1-46.908-4.792,270.308,270.308,0,0,0,95.084,17.2,269.722,269.722,0,0,0,123.5-29.8A270.425,270.425,0,0,0,187.131,232.44Z" transform="translate(354.831 70.072)" fill="none" stroke="#141c50" stroke-miterlimit="10" stroke-width="1"/><path d="M103.656,207.716c0-105.181-77.1-192.338-177.869-208.074C18.66,29.339,85.922,116.327,85.922,219.054A229.314,229.314,0,0,1,35.468,362.845,210.043,210.043,0,0,0,103.656,207.716Z" transform="translate(415.406 80.158)" fill="none" stroke="#cd0024" stroke-miterlimit="10" stroke-width="1"/></g></svg>