<svg xmlns="http://www.w3.org/2000/svg" xmlns:xlink="http://www.w3.org/1999/xlink" width="457.182" height="537.765" viewBox="0 0 457.182 537.765"><defs><clipPath id="a"><rect width="448" height="530.027" transform="matrix(1, -0.017, 0.017, 1, 1489.17, 2591.453)" fill="#fff" stroke="#707070" stroke-width="1"/></clipPath></defs><g transform="translate(-1489.17 -2583.634)" opacity="0.21" clip-path="url(#a)"><g transform="translate(1510.677 2056.345)"><path d="M212.289,207.35a501.11,501.11,0,0,0-70.844,46.142q19.571-12.47,40.327-23.121C191.62,222.3,201.836,214.667,212.289,207.35Z" transform="translate(91.11 -116.88)" fill="#009edd"/><path d="M261.093,373.249c-3.395,2.783-6.89,5.446-10.353,8.139q9.283-5.915,18.287-12.2C266.412,370.586,263.74,371.894,261.093,373.249Z" transform="translate(557.97 574.404)" fill="#009edd"/><path d="M135.786,612.15c0-161.083,76.042-304.316,194.1-396.047C190.125,305.087,97.33,461.273,97.33,639.235c0,276.915,224.489,501.4,501.4,501.4A499.067,499.067,0,0,0,906.04,1035.282a498.863,498.863,0,0,1-268.855,78.267C360.27,1113.549,135.786,889.065,135.786,612.15Z" transform="translate(-97.33 -79.491)" fill="#009edd"/><path d="M656.71,1101.029a500.214,500.214,0,0,1-175.933-31.819C287.01,1029.12,141.357,857.5,141.357,651.861a425.819,425.819,0,0,1,19.7-128.331c19.051-125.157,84.4-235.075,177.994-311.813q-20.741,10.643-40.327,23.121c-118.057,91.73-194.1,234.964-194.1,396.047,0,276.915,224.484,501.4,501.4,501.4a498.861,498.861,0,0,0,268.855-78.267c3.463-2.694,6.958-5.356,10.353-8.139A499,499,0,0,1,656.71,1101.029Z" transform="translate(-66.169 -98.226)" fill="#0057a5"/><path d="M125.547,346.962a505.1,505.1,0,0,1,5.746-76.095,425.818,425.818,0,0,0-19.7,128.331c0,205.644,145.653,377.259,339.42,417.349C260.9,745.281,125.547,561.963,125.547,346.962Z" transform="translate(-36.405 154.437)" fill="#ad0a22"/><path d="M859.359,906.636a388.265,388.265,0,0,1-263.546,102.685c-215.238,0-389.721-174.489-389.721-389.721S380.575,229.878,595.813,229.878a392.588,392.588,0,0,1,60.6,4.713A425.766,425.766,0,0,0,526.5,214.359c-190.667,0-352.056,125.215-406.516,297.885a505.1,505.1,0,0,0-5.746,76.095c0,215,135.353,398.319,325.466,469.585a427.978,427.978,0,0,0,86.8,8.867C661.217,1066.791,781.256,1004.223,859.359,906.636Z" transform="translate(-25.098 -86.94)" fill="#cd0024"/><path d="M581.987,222.016a392.587,392.587,0,0,0-60.6-4.713c-215.238,0-389.721,174.483-389.721,389.721S306.147,996.745,521.385,996.745A388.265,388.265,0,0,0,784.932,894.061,424.3,424.3,0,0,0,878.291,628C878.291,437.923,753.835,276.967,581.987,222.016Z" transform="translate(49.33 -74.365)" fill="none"/><path d="M442.026,190.188a498.947,498.947,0,0,0-287.142,90.471A499.123,499.123,0,0,1,391.34,221.443c276.915,0,501.4,224.484,501.4,501.4,0,170.076-84.762,320.274-214.263,410.929C836.154,1049.289,943.43,882.992,943.43,691.587,943.43,414.672,718.946,190.188,442.026,190.188Z" transform="translate(148.515 -190.188)" fill="#009edd"/><path d="M917.472,697.521c0-276.92-224.489-501.4-501.4-501.4a499.123,499.123,0,0,0-236.456,59.215c-10.453,7.317-20.67,14.95-30.517,23.021A499.035,499.035,0,0,1,377.617,223.2c276.915,0,501.4,224.484,501.4,501.4,0,156.349-71.582,295.956-183.74,387.908,2.646-1.355,5.319-2.662,7.934-4.064C832.711,1017.795,917.472,867.6,917.472,697.521Z" transform="translate(123.787 -164.862)" fill="#0057a5"/><path d="M1023.245,702.659c0-276.92-224.484-501.4-501.4-501.4a499.035,499.035,0,0,0-228.522,55.151c-93.6,76.738-158.943,186.655-177.994,311.813,54.455-172.67,215.849-297.885,406.516-297.885a425.766,425.766,0,0,1,129.912,20.232c186.45,29.12,329.114,190.388,329.114,385.008A388.633,388.633,0,0,1,854.7,962.611c-78.1,97.587-198.142,160.155-332.857,160.155a427.961,427.961,0,0,1-86.8-8.867,501.566,501.566,0,0,0,404.455-23.332C951.663,998.615,1023.245,859.009,1023.245,702.659Z" transform="translate(-20.442 -142.915)" fill="#141c50"/><path d="M546.2,603.205c0-194.621-142.664-355.888-329.114-385.008,171.848,54.951,296.3,215.907,296.3,405.984a424.3,424.3,0,0,1-93.359,266.061A388.633,388.633,0,0,0,546.2,603.205Z" transform="translate(414.228 -70.546)" fill="#cd0024"/></g></g></svg>