<svg width="65" height="64" viewBox="0 0 65 64" fill="none" xmlns="http://www.w3.org/2000/svg">
<circle cx="32.0516" cy="32" r="32" fill="white"/>
<circle cx="32.0516" cy="32" r="24" stroke="#0A36AF" stroke-opacity="0.68" stroke-width="4"/>
<path d="M26.8719 22.4569L19.8825 21.2636C18.6611 21.0551 17.5459 21.996 17.5459 23.2351V39.578C17.5459 40.4335 18.0901 41.1943 18.8997 41.4707L26.358 44.0174C26.7982 44.1678 27.277 44.1599 27.7121 43.9953L34.9617 41.2522C35.3791 41.0943 35.8374 41.0805 36.2636 41.2131L43.431 43.4429C44.7183 43.8434 46.0251 42.8814 46.0251 41.5332V24.4854C46.0251 23.3809 45.1297 22.4854 44.0251 22.4854H36.7636H27.2085C27.0957 22.4854 26.9831 22.4759 26.8719 22.4569Z" stroke="#0A36AF" stroke-width="2" stroke-linecap="round"/>
<path d="M27.039 22.4854V43.5554M36.7636 32.21V41.24" stroke="#0A36AF" stroke-width="2" stroke-linecap="round"/>
<path d="M42.3205 22.5569C42.3205 26.0012 39.8366 29.8331 38.1901 31.9948C37.465 32.9468 36.0896 32.9236 35.3839 31.9571C33.7382 29.703 31.2067 25.7215 31.2067 22.5569C31.2067 19.4879 33.6946 17 36.7636 17C39.8326 17 42.3205 19.4879 42.3205 22.5569Z" fill="white"/>
<path d="M40.4828 22.559C40.4828 26.007 36.7636 30.0353 36.7636 30.0353C36.7636 30.0353 33.0445 25.697 33.0445 22.559C33.0445 20.505 34.7096 18.8398 36.7636 18.8398C38.8176 18.8398 40.4828 20.505 40.4828 22.559Z" stroke="#0A36AF" stroke-opacity="0.68" stroke-width="2" stroke-linecap="round"/>
<circle cx="36.7636" cy="22.4318" r="1.56713" fill="#D91E32"/>
</svg>
