<svg width="65" height="64" viewBox="0 0 65 64" fill="none" xmlns="http://www.w3.org/2000/svg">
<circle cx="32.0516" cy="32" r="32" fill="white"/>
<circle cx="32.0516" cy="32" r="24" stroke="#0A36AF" stroke-opacity="0.68" stroke-width="4"/>
<path d="M17.5993 34.125V40.4273C17.5993 41.433 18.4146 42.2483 19.4204 42.2483H20.1593C20.7569 42.2483 21.2414 41.7638 21.2414 41.1662C21.2414 40.5685 21.7259 40.084 22.3236 40.084H41.9733C42.571 40.084 43.0554 40.5685 43.0554 41.1662C43.0554 41.7638 43.5399 42.2483 44.1376 42.2483H44.7796C45.7319 42.2483 46.5038 41.4764 46.5038 40.5241V34.125C46.5038 33.0205 45.6084 32.125 44.5038 32.125H19.5993C18.4947 32.125 17.5993 33.0205 17.5993 34.125Z" stroke="#0A36AF" stroke-width="2" stroke-linecap="round"/>
<path d="M18.7617 32.75V24.7517C18.7617 22.5425 20.5525 20.7517 22.7617 20.7517H41.3415C43.5506 20.7517 45.3415 22.5425 45.3415 24.7517V32.75" stroke="#0A36AF" stroke-opacity="0.68" stroke-width="2" stroke-linecap="round"/>
<path d="M23.14 31.012V28.3237C23.14 27.2191 24.0354 26.3237 25.14 26.3237H28.2693C29.3738 26.3237 30.2693 27.2191 30.2693 28.3237V31.012" stroke="#0A36AF" stroke-width="2" stroke-linecap="round"/>
<path d="M33.8339 31.012V28.3237C33.8339 27.2191 34.7293 26.3237 35.8339 26.3237H38.9632C40.0677 26.3237 40.9632 27.2191 40.9632 28.3237V31.012" stroke="#0A36AF" stroke-width="2" stroke-linecap="round"/>
<path d="M27.7431 30.0256C27.8535 30.0256 27.9447 29.9355 27.927 29.8265C27.9116 29.7324 27.8855 29.6402 27.8488 29.5517C27.7866 29.4014 27.6953 29.2649 27.5803 29.1499C27.4653 29.0349 27.3288 28.9437 27.1786 28.8814C27.0283 28.8192 26.8673 28.7872 26.7046 28.7872C26.542 28.7872 26.3809 28.8192 26.2307 28.8814C26.0804 28.9437 25.9439 29.0349 25.8289 29.1499C25.7139 29.2649 25.6227 29.4014 25.5604 29.5517C25.5238 29.6402 25.4976 29.7324 25.4823 29.8265C25.4645 29.9355 25.5557 30.0256 25.6662 30.0256L26.7046 30.0256H27.7431Z" fill="#D91E32"/>
<path d="M38.437 30.0256C38.5475 30.0256 38.6386 29.9355 38.6209 29.8265C38.6056 29.7324 38.5794 29.6402 38.5427 29.5517C38.4805 29.4014 38.3893 29.2649 38.2743 29.1499C38.1593 29.0349 38.0227 28.9437 37.8725 28.8814C37.7222 28.8192 37.5612 28.7872 37.3985 28.7872C37.2359 28.7872 37.0748 28.8192 36.9246 28.8814C36.7743 28.9437 36.6378 29.0349 36.5228 29.1499C36.4078 29.2649 36.3166 29.4014 36.2543 29.5517C36.2177 29.6402 36.1915 29.7324 36.1762 29.8265C36.1584 29.9355 36.2496 30.0256 36.3601 30.0256L37.3985 30.0256H38.437Z" fill="#D91E32"/>
</svg>
