<svg width="64" height="64" viewBox="0 0 64 64" fill="none" xmlns="http://www.w3.org/2000/svg">
<circle cx="32" cy="32" r="32" fill="white"/>
<circle cx="32" cy="32" r="24" stroke="#0A36AF" stroke-opacity="0.68" stroke-width="4"/>
<path d="M17.362 25.9547V37.8168" stroke="#0A36AF" stroke-opacity="0.68" stroke-width="2" stroke-linecap="round"/>
<path d="M19.5842 32.0389C22.0477 32.2714 25.441 35.0138 25.9523 37.6168" stroke="#0A36AF" stroke-opacity="0.68" stroke-width="2" stroke-linecap="round"/>
<path d="M25.0032 22.0977C25.0821 22.981 25.3599 24.6235 25.9289 26.1445M27.1136 28.3562C26.625 27.7454 26.2348 26.9625 25.9289 26.1445M16.9981 40H48.5248M25.9289 26.1445H16.3431C15.6882 25.4748 14.7712 23.7278 16.3431 22.0977H28.7874C29.4424 24.9601 32.0186 30.8305 37.0836 31.4127L36.8217 32.1986M35.8465 35.1242L36.8217 32.1986M36.8217 32.1986C39.3833 32.252 43.8635 32.1986 45.8165 34.0325C47.056 35.1965 47.1264 37.0163 47.1264 37.6712M28.4236 25.518L30.3885 24.4264M29.8063 27.7012L31.7712 26.6096M31.7712 29.9572L33.1539 28.3562M34.2455 31.4127L35.3371 29.8117" stroke="#0A36AF" stroke-width="2" stroke-linecap="round"/>
<path d="M22.417 36.8422C22.036 36.2685 21.4993 35.6445 20.9554 35.0741C20.3642 34.4543 19.375 34.8938 19.375 35.7503V36.9375C19.375 37.4898 19.8227 37.9375 20.375 37.9375H21.7177C22.3487 37.9375 22.7661 37.3679 22.417 36.8422Z" fill="#D91E32"/>
</svg>
