<svg xmlns="http://www.w3.org/2000/svg" width="116.563" height="243.583" viewBox="0 0 116.563 243.583"><g transform="translate(0)"><path d="M-467.624,236.784c2.63.188,2.786-4.811,4.907-5.4,2.484-.694,4.089,3.09,5.574,2.783,3.91-.807,6.58-4.266,9.359-.561,2.949-4.424,1.522-1.43,5.99,1.123-.986-.739,11.9-6.9,13.313-7.908.606-.436.708-2.928,2.878-3.814,6.151-2.512,1.569.155,6.527,1.357,2.671.648,10.959,2.886,13.375,4.281,4.574,2.641,1.761,1.464,2.987,4.589-.027-.068-.661,5.929.015,7.659,1.625,4.16,1.787.878,4.516,3.392,5.89,5.429,9.349,2.629,15.348,6.914-2.774,2.219-13.856,8.053-13.29,7.487a5.388,5.388,0,0,0-3.93,2.621,3.62,3.62,0,0,0-2.995-2.246c5.4,8.1-7.826,14.775-11.979,22.835-2.734,5.307-1.436,11.991-.3,14.766,1.657,4.067,15.6,16.451,6.856,14.995,3.2.534,9.874,9.048,12.291,11.584,1.191,1.249,7.269,7.477,4.555,6.572,1.329.818,12.89,8.448,10.856,10.481,1.164-.665-.032-3.291,2.058-2.246-3.191,2.466,7.523,14.642,7.955,15.605,1.752,3.9,3.018,9.779,3.989,14.249.312,1.439,1.353,10.249.784,6.832-.006.059,1.11,6.773-.562,3.93,1.409,4.226,3.959,10.872,2.995,16.659-5.26-5.26,2.26,3.858-3.93,2.62.964.964,3.558,12.169.374,5.8,3.5,6.125-5.465,12.573-10.037,16.307a54.251,54.251,0,0,1-11.429,7.112c-1.923.872-4.552,3.8-6.61,4.095-2.8.4-2.618-8.811-4.118-1.311-.212-.848-.589-3.369-2.807-3.369q.58,3.2-2.62,3.182a6.155,6.155,0,0,1,2.995,1.311c.548,2.739-4.319,1.31-5.241,1.31a13.067,13.067,0,0,1,5.428,3.182c-4.9.545-2.923-1.76-7.3-2.246.564.789,6.091,5.474,5.054,6.926a36.448,36.448,0,0,1-7.487-6.738c.809,3.239,8.573,6.614,6.071,10.287-2.774,4.072-8.172-5.26-10.189-6.544,5.718,10.619,5.986,5.763-1.684,13.289-2.036,2-9.416,13.38-13.1,9.358,3.777-4.722.579-1.566.457-10.2-.029-2.071,3.89-12.849,4.223-10.013.142-3.978-8.32-6.5-9.921-9.172,4.23-1.691,6.937-6.453,9.137-7.533,5.146-2.527,9.919-.4,15.758,1.544,1.015-8.121-11.35-16.182,4.3-14.225a21.574,21.574,0,0,0-.561-4.867c2.909-.831,13.864-3.441,15.722-6.364,3.662-5.76-.336-19.041-.749-25.456-.378-5.875.913-11.261.866-17.406l1.755-1.685a6.126,6.126,0,0,0-3.556-7.3c-.694-5.981-2.492-.831,1.31-7.674-2.907-1.163-10.68-6.433-12.423-8.774-2.4-3.217-3.259-8.561-5.919-12.189-3.2-4.361-6.538-8.214-9.546-12.915-1-1.571-5.07-8.311-5.989-9.317-3.06-3.347-16.353-5.032-17.255-10.267.286,1.659,2.032-6.685,1.532-5.684,1.578-2.63,11.949,2.6,13.066-5.077.4-2.73-4.972-6.019-7.826-7.09.842-2.245,5.99-3.629.187-5.989-5.323-2.165-5.181-2.162-9.359,2.433-8.339-5.957-12.112-8.469-12.915-18.9.937,5.621-9.245-6.87-9.733-8.984" transform="translate(467.624 -221.961)" fill="#5a5694"/><path d="M-467.624,236.784c2.63.188,2.786-4.811,4.907-5.4,2.484-.694,4.089,3.09,5.574,2.783,3.91-.807,6.58-4.266,9.359-.561,2.949-4.424,1.522-1.43,5.99,1.123-.986-.739,11.9-6.9,13.313-7.908.606-.436.708-2.928,2.878-3.814,6.151-2.512,1.569.155,6.527,1.357,2.671.648,10.959,2.886,13.375,4.281,4.574,2.641,1.761,1.464,2.987,4.589-.027-.068-.661,5.929.015,7.659,1.625,4.16,1.787.878,4.516,3.392,5.89,5.429,9.349,2.629,15.348,6.914-2.774,2.219-13.856,8.053-13.29,7.487a5.388,5.388,0,0,0-3.93,2.621,3.62,3.62,0,0,0-2.995-2.246c5.4,8.1-7.826,14.775-11.979,22.835-2.734,5.307-1.436,11.991-.3,14.766,1.657,4.067,15.6,16.451,6.856,14.995,3.2.534,9.874,9.048,12.291,11.584,1.191,1.249,7.269,7.477,4.555,6.572,1.329.818,12.89,8.448,10.856,10.481,1.164-.665-.032-3.291,2.058-2.246-3.191,2.466,7.523,14.642,7.955,15.605,1.752,3.9,3.018,9.779,3.989,14.249.312,1.439,1.353,10.249.784,6.832-.006.059,1.11,6.773-.562,3.93,1.409,4.226,3.959,10.872,2.995,16.659-5.26-5.26,2.26,3.858-3.93,2.62.964.964,3.558,12.169.374,5.8,3.5,6.125-5.465,12.573-10.037,16.307a54.251,54.251,0,0,1-11.429,7.112c-1.923.872-4.552,3.8-6.61,4.095-2.8.4-2.618-8.811-4.118-1.311-.212-.848-.589-3.369-2.807-3.369q.58,3.2-2.62,3.182a6.155,6.155,0,0,1,2.995,1.311c.548,2.739-4.319,1.31-5.241,1.31a13.067,13.067,0,0,1,5.428,3.182c-4.9.545-2.923-1.76-7.3-2.246.564.789,6.091,5.474,5.054,6.926a36.448,36.448,0,0,1-7.487-6.738c.809,3.239,8.573,6.614,6.071,10.287-2.774,4.072-8.172-5.26-10.189-6.544,5.718,10.619,5.986,5.763-1.684,13.289-2.036,2-9.416,13.38-13.1,9.358,3.777-4.722.579-1.566.457-10.2-.029-2.071,3.89-12.849,4.223-10.013.142-3.978-8.32-6.5-9.921-9.172,4.23-1.691,6.937-6.453,9.137-7.533,5.146-2.527,9.919-.4,15.758,1.544,1.015-8.121-11.35-16.182,4.3-14.225a21.574,21.574,0,0,0-.561-4.867c2.909-.831,13.864-3.441,15.722-6.364,3.662-5.76-.336-19.041-.749-25.456-.378-5.875.913-11.261.866-17.406l1.755-1.685a6.126,6.126,0,0,0-3.556-7.3c-.694-5.981-2.492-.831,1.31-7.674-2.907-1.163-10.68-6.433-12.423-8.774-2.4-3.217-3.259-8.561-5.919-12.189-3.2-4.361-6.538-8.214-9.546-12.915-1-1.571-5.07-8.311-5.989-9.317-3.06-3.347-16.353-5.032-17.255-10.267.286,1.659,2.032-6.685,1.532-5.684,1.578-2.63,11.949,2.6,13.066-5.077.4-2.73-4.972-6.019-7.826-7.09.842-2.245,5.99-3.629.187-5.989-5.323-2.165-5.181-2.162-9.359,2.433-8.339-5.957-12.112-8.469-12.915-18.9.937,5.621-9.245-6.87-9.733-8.984" transform="translate(478.445 -218.715)" fill="none" stroke="#5a5694" stroke-linecap="round" stroke-miterlimit="3.974" stroke-width="3" stroke-dasharray="0 8"/></g></svg>