<svg xmlns="http://www.w3.org/2000/svg" width="116.295" height="249.355" viewBox="0 0 116.295 249.355"><g transform="translate(0 3.356)"><g transform="translate(13.339)"><path d="M-1165-299h0" transform="translate(1171.818 402.748)" fill="none" stroke="#5a5694" stroke-linecap="round" stroke-miterlimit="3.974" stroke-width="3" stroke-dasharray="0 8"/><path d="M-1163.839-294.841c3.87,6.45-1.192-3.575,0,0" transform="translate(1172.287 404.37)" fill="none" stroke="#5a5694" stroke-linecap="round" stroke-miterlimit="3.974" stroke-width="3" stroke-dasharray="0 8"/><path d="M-1160.2-294.7h0" transform="translate(1174.132 404.822)" fill="none" stroke="#5a5694" stroke-linecap="round" stroke-miterlimit="3.974" stroke-width="3" stroke-dasharray="0 8"/><path d="M-1158.077-285.5h0" transform="translate(1174.38 409.257)" fill="none" stroke="#5a5694" stroke-linecap="round" stroke-miterlimit="3.974" stroke-width="3" stroke-dasharray="0 8"/><path d="M-1155.232-288.929h0" transform="translate(1175.241 406.461)" fill="none" stroke="#5a5694" stroke-linecap="round" stroke-miterlimit="3.974" stroke-width="3" stroke-dasharray="0 8"/><path d="M-1149.929-262.7h0" transform="translate(1177.941 420.249)" fill="none" stroke="#5a5694" stroke-linecap="round" stroke-miterlimit="3.974" stroke-width="3" stroke-dasharray="0 8"/><path d="M-1149.252-259.9h0" transform="translate(1179.339 421.599)" fill="none" stroke="#5a5694" stroke-linecap="round" stroke-miterlimit="3.974" stroke-width="3" stroke-dasharray="0 8"/><path d="M-1128.6-264.9h0" transform="translate(1189.222 419.189)" fill="none" stroke="#5a5694" stroke-linecap="round" stroke-miterlimit="3.974" stroke-width="3" stroke-dasharray="0 8"/><path d="M-1125.3-228.114h0" transform="translate(1190.958 436.352)" fill="none" stroke="#5a5694" stroke-linecap="round" stroke-miterlimit="3.974" stroke-width="3" stroke-dasharray="0 8"/><path d="M-1124.608-222.325h0" transform="translate(1191.007 438.715)" fill="none" stroke="#5a5694" stroke-linecap="round" stroke-miterlimit="3.974" stroke-width="3" stroke-dasharray="0 8"/><path d="M-1124.586-227.034c1.414,0-1.267-2.534,0,0" transform="translate(1191.133 436.902)" fill="none" stroke="#5a5694" stroke-linecap="round" stroke-miterlimit="3.974" stroke-width="3" stroke-dasharray="0 8"/><path d="M-1122.955-233.725h0" transform="translate(1191.874 433.218)" fill="none" stroke="#5a5694" stroke-linecap="round" stroke-miterlimit="3.974" stroke-width="3" stroke-dasharray="0 8"/><path d="M-1122.507-213.8c0,1.236-4.1-8.209,0,0" transform="translate(1191.425 442.192)" fill="none" stroke="#5a5694" stroke-linecap="round" stroke-miterlimit="3.974" stroke-width="3" stroke-dasharray="0 8"/><path d="M-1124-219.754h0" transform="translate(1191.585 438.811)" fill="none" stroke="#5a5694" stroke-linecap="round" stroke-miterlimit="3.974" stroke-width="3" stroke-dasharray="0 8"/><path d="M-1122.752-228.039h0" transform="translate(1192.115 435.388)" fill="none" stroke="#5a5694" stroke-linecap="round" stroke-miterlimit="3.974" stroke-width="3" stroke-dasharray="0 8"/><path d="M-1124-208.364c0,2.866,2.6-2.6,0,0" transform="translate(1191.585 446.096)" fill="none" stroke="#5a5694" stroke-linecap="round" stroke-miterlimit="3.974" stroke-width="3" stroke-dasharray="0 8"/><path d="M-1122.1-222.6h0" transform="translate(1192.501 439.582)" fill="none" stroke="#5a5694" stroke-linecap="round" stroke-miterlimit="3.974" stroke-width="3" stroke-dasharray="0 8"/><path d="M-1121.9-225.556c3.2,4.8,0-3.956,0,0" transform="translate(1192.597 437.647)" fill="none" stroke="#5a5694" stroke-linecap="round" stroke-miterlimit="3.974" stroke-width="3" stroke-dasharray="0 8"/><path d="M-1121.6-229.114h0" transform="translate(1192.742 435.87)" fill="none" stroke="#5a5694" stroke-linecap="round" stroke-miterlimit="3.974" stroke-width="3" stroke-dasharray="0 8"/><path d="M-1169.6-274.737c1.573-9.435,17.975-15.555,13.191-36.608,10.569,0,26.146-32.6,42.833-39.276,0-7.125,2.619-10.945,4.743-18.378,12.614,17.2-4.4,54.588.889,59.878a22.5,22.5,0,0,1,14.377-3.705c1.183,13.016,7.171,42.417,25.2,30.828-1.838,23.9-34.89,26.963-38.387,51.133-3.913,27.055,35.1,61.763,8.6,100.043-3.917-6.853,6.662-57.054-4.446-45.946,6.873-15.463-11.472-39.11-14.525-49.8.107-.107-12.128,23.905-17.193,21.935,1.435.637-1.63-9.321-1.63-.741.679.3-7.292-2.8-2.371-6.077-5.224,1.9-4.987,7.907-2.964-3.557q-4.2-.251-4.595,6.373c6.495-2.675-.305-36.478-3.409-42.685q-2.821,2.557-1.186,6.373c3.247,1.337-14.486-20.253-8.745-12.6a7.469,7.469,0,0,1-.3-6.966q-1.767,1.194-.3-2.223c-3.759,6.444-5.533,1.912-9.782-8" transform="translate(1169.6 369)" fill="none" stroke="#5a5694" stroke-linecap="round" stroke-miterlimit="3.974" stroke-width="3" stroke-dasharray="0 8"/></g><g transform="translate(0 7.411)"><path d="M-1165-299h0" transform="translate(1171.818 402.748)" fill="#5a5694"/><path d="M-1163.839-294.841c3.87,6.45-1.192-3.575,0,0" transform="translate(1172.287 404.37)" fill="#5a5694"/><path d="M-1160.2-294.7h0" transform="translate(1174.132 404.822)" fill="#5a5694"/><path d="M-1158.077-285.5h0" transform="translate(1174.38 409.257)" fill="#5a5694"/><path d="M-1155.232-288.929h0" transform="translate(1175.241 406.461)" fill="#5a5694"/><path d="M-1149.929-262.7h0" transform="translate(1177.941 420.249)" fill="#5a5694"/><path d="M-1149.252-259.9h0" transform="translate(1179.339 421.599)" fill="#5a5694"/><path d="M-1128.6-264.9h0" transform="translate(1189.222 419.189)" fill="#5a5694"/><path d="M-1125.3-228.114h0" transform="translate(1190.958 436.352)" fill="#5a5694"/><path d="M-1124.608-222.325h0" transform="translate(1191.007 438.715)" fill="#5a5694"/><path d="M-1124.586-227.034c1.414,0-1.267-2.534,0,0" transform="translate(1191.133 436.902)" fill="#5a5694"/><path d="M-1122.955-233.725h0" transform="translate(1191.874 433.218)" fill="#5a5694"/><path d="M-1122.507-213.8c0,1.236-4.1-8.209,0,0" transform="translate(1191.425 442.192)" fill="#5a5694"/><path d="M-1124-219.754h0" transform="translate(1191.585 438.811)" fill="#5a5694"/><path d="M-1122.752-228.039h0" transform="translate(1192.115 435.388)" fill="#5a5694"/><path d="M-1124-208.364c0,2.866,2.6-2.6,0,0" transform="translate(1191.585 446.096)" fill="#5a5694"/><path d="M-1122.1-222.6h0" transform="translate(1192.501 439.582)" fill="#5a5694"/><path d="M-1121.9-225.556c3.2,4.8,0-3.956,0,0" transform="translate(1192.597 437.647)" fill="#5a5694"/><path d="M-1121.6-229.114h0" transform="translate(1192.742 435.87)" fill="#5a5694"/><path d="M-1169.6-274.737c1.573-9.435,17.975-15.555,13.191-36.608,10.569,0,26.146-32.6,42.833-39.276,0-7.125,2.619-10.945,4.743-18.378,12.614,17.2-4.4,54.588.889,59.878a22.5,22.5,0,0,1,14.377-3.705c1.183,13.016,7.171,42.417,25.2,30.828-1.838,23.9-34.89,26.963-38.387,51.133-3.913,27.055,35.1,61.763,8.6,100.043-3.917-6.853,6.662-57.054-4.446-45.946,6.873-15.463-11.472-39.11-14.525-49.8.107-.107-12.128,23.905-17.193,21.935,1.435.637-1.63-9.321-1.63-.741.679.3-7.292-2.8-2.371-6.077-5.224,1.9-4.987,7.907-2.964-3.557q-4.2-.251-4.595,6.373c6.495-2.675-.305-36.478-3.409-42.685q-2.821,2.557-1.186,6.373c3.247,1.337-14.486-20.253-8.745-12.6a7.469,7.469,0,0,1-.3-6.966q-1.767,1.194-.3-2.223c-3.759,6.444-5.533,1.912-9.782-8" transform="translate(1169.6 369)" fill="#5a5694"/></g></g></svg>