<svg xmlns="http://www.w3.org/2000/svg" width="145.327" height="178.844" viewBox="0 0 145.327 178.844"><g transform="translate(0 1.518)"><path d="M-1484.2-123c1.156-2.773.693-6.47,3.7-8.55,1.617-1.155,5.546.231,6.008-2.311-3.7,2.08,0-4.159.462-5.084.924-1.849,1.156-2.773,3.235-3.7,1.849-.693,5.315-2.542,5.315-4.853,2.773,1.618-.924,9.243,4.391,7.163,3.235-1.155,3,.231,5.546,1.155,3.466,1.386.924-3,.693-3.235-.462-2.311,1.155-3.928,1.386-6.008,0-2.08-1.386-4.159-2.542-5.777-1.156-1.849-2.08-3.7-1.849-6.008,0-.462,2.773-6.47,3.7-5.315s.462,1.849,2.773,1.386c3.7-.924,3.7,1.618,5.315,3.466,1.849,2.08,3.928,3.928,5.777,6.008,1.386,1.618.693,4.853,3,5.546a2.962,2.962,0,0,0,1.156-3.466c.231,2.08,2.773,1.618,2.773,3.928.231,2.311-1.849,5.084-1.387,7.626.924,7.857,9.243,8.088,14.558,11.785,1.849-1.849,1.618-3.7,4.391-4.853,3.235-1.155,5.546,0,7.857,1.618,1.386,1.155,3.235,2.311,3.235,4.159s-3.235,1.618-3.928,3.466c1.386.693,4.391.231,4.853,2.08.231,1.618,1.386,1.386,2.542,2.08,4.621,2.773,2.773,3.235-.462,6.932,3.235.924-3.928,5.084-6.47,4.622-.693,0-6.47-1.849-6.932-.693-.693,1.155,1.618,3.235.924,5.315-2.08,0-4.391,2.08-1.617,3,4.391,1.386,8.781,5.777,12.478,8.55,1.386,1.155,9.243,1.386,8.55,4.159-.462,2.08-1.849,2.773-.231,4.853,1.156,1.618,3.467,3.928,5.084,3.928,1.849,0,2.542,3,3,4.391a24.542,24.542,0,0,0,4.853,7.163c1.155,1.386,4.853,7.394,6.932,6.932,1.849-.462,2.773,5.546,4.391,6.239,2.08.924.693,5.315,1.849,7.163.462.693,1.156,2.773,2.08,3s2.08-.924,3-.231c1.849,1.155.924,3,3.466,3.7,2.311.462,4.391,4.159,6.932,5.084-1.155,2.08-3.928,3-4.853,4.853-1.155,2.311,4.853,5.084,5.546,6.7,1.155,2.542,3.928,2.542,2.08,6.008-.462,1.155-1.849,2.311-2.08,3.466s.924,1.849.924,3.235c-.462,3.7-1.386,4.39-4.622,5.084-2.773.693-3.928,4.159-7.394,4.159s-3.7-4.622-5.777-4.853c-1.386-.231-.924,1.849-1.849,2.08s-2.08.462-3.235.693-4.853,2.08-4.159,3.466c.924,1.849,3.235,4.159.924,6.239-2.773,2.773-7.395-4.853-11.323-3.466-2.31.693-5.315-3-3-4.853,1.849-1.386,4.853-2.542,4.853-5.084,0-2.311,1.387-5.546,1.155-7.626-.231-1.386-2.311-1.386-2.079-3,.231-1.386,1.386-2.542,2.079-3.7a2.53,2.53,0,0,1-1.848,0c-.231-1.849,4.621-4.39,2.08-7.163-1.387-1.618-7.395-3.466-3-6.008-6.239-2.542-12.247-6.932-12.478-14.327,0-6.008,3-14.1-2.773-17.793s-6.932-12.478-14.1-14.1c-.924-.231-12.94-3.7-9.243.693-3,.462-2.542,4.622-4.159,5.777-.693.462-3.466.462-4.853,1.618-2.08,1.618-2.542-.231-3.7-1.155-2.08-1.618-5.315-3.928-7.626-4.622-2.542-.693-3.235,4.39-6.008,2.542-.693,4.622-6.7,7.857-9.705,10.861-1.386,1.386-3,.693-4.159-.693-1.386-1.618.231-4.39,1.156-6.008a12.525,12.525,0,0,0,1.848-6.932c0-1.618-1.386-4.39-.924-5.777a9.047,9.047,0,0,1,1.848-2.311c.924-1.386.231-1.386.462-3,.693-3.235,2.08-4.853.924-8.088-1.617-4.159,1.618-10.63-6.008-8.781a2.252,2.252,0,0,0-2.08.924c-.924,1.618-.924.231-2.311.462-2.542.462-3.466-.462-4.39-2.773-1.156-3.235,3.928-7.163,2.311-9.705-.693-.924-2.542-4.159-3.466-4.622-2.08-.924-2.773,1.386-4.621,2.08-1.156.231-1.156-.231-1.156-.924" transform="translate(1493.939 165.664)" fill="none" stroke="#5a5694" stroke-linecap="round" stroke-miterlimit="3.974" stroke-width="3" stroke-dasharray="0 8"/><path d="M-1484.2-123c1.156-2.773.693-6.47,3.7-8.55,1.617-1.155,5.546.231,6.008-2.311-3.7,2.08,0-4.159.462-5.084.924-1.849,1.156-2.773,3.235-3.7,1.849-.693,5.315-2.542,5.315-4.853,2.773,1.618-.924,9.243,4.391,7.163,3.235-1.155,3,.231,5.546,1.155,3.466,1.386.924-3,.693-3.235-.462-2.311,1.155-3.928,1.386-6.008,0-2.08-1.386-4.159-2.542-5.777-1.156-1.849-2.08-3.7-1.849-6.008,0-.462,2.773-6.47,3.7-5.315s.462,1.849,2.773,1.386c3.7-.924,3.7,1.618,5.315,3.466,1.849,2.08,3.928,3.928,5.777,6.008,1.386,1.618.693,4.853,3,5.546a2.962,2.962,0,0,0,1.156-3.466c.231,2.08,2.773,1.618,2.773,3.928.231,2.311-1.849,5.084-1.387,7.626.924,7.857,9.243,8.088,14.558,11.785,1.849-1.849,1.618-3.7,4.391-4.853,3.235-1.155,5.546,0,7.857,1.618,1.386,1.155,3.235,2.311,3.235,4.159s-3.235,1.618-3.928,3.466c1.386.693,4.391.231,4.853,2.08.231,1.618,1.386,1.386,2.542,2.08,4.621,2.773,2.773,3.235-.462,6.932,3.235.924-3.928,5.084-6.47,4.622-.693,0-6.47-1.849-6.932-.693-.693,1.155,1.618,3.235.924,5.315-2.08,0-4.391,2.08-1.617,3,4.391,1.386,8.781,5.777,12.478,8.55,1.386,1.155,9.243,1.386,8.55,4.159-.462,2.08-1.849,2.773-.231,4.853,1.156,1.618,3.467,3.928,5.084,3.928,1.849,0,2.542,3,3,4.391a24.542,24.542,0,0,0,4.853,7.163c1.155,1.386,4.853,7.394,6.932,6.932,1.849-.462,2.773,5.546,4.391,6.239,2.08.924.693,5.315,1.849,7.163.462.693,1.156,2.773,2.08,3s2.08-.924,3-.231c1.849,1.155.924,3,3.466,3.7,2.311.462,4.391,4.159,6.932,5.084-1.155,2.08-3.928,3-4.853,4.853-1.155,2.311,4.853,5.084,5.546,6.7,1.155,2.542,3.928,2.542,2.08,6.008-.462,1.155-1.849,2.311-2.08,3.466s.924,1.849.924,3.235c-.462,3.7-1.386,4.39-4.622,5.084-2.773.693-3.928,4.159-7.394,4.159s-3.7-4.622-5.777-4.853c-1.386-.231-.924,1.849-1.849,2.08s-2.08.462-3.235.693-4.853,2.08-4.159,3.466c.924,1.849,3.235,4.159.924,6.239-2.773,2.773-7.395-4.853-11.323-3.466-2.31.693-5.315-3-3-4.853,1.849-1.386,4.853-2.542,4.853-5.084,0-2.311,1.387-5.546,1.155-7.626-.231-1.386-2.311-1.386-2.079-3,.231-1.386,1.386-2.542,2.079-3.7a2.53,2.53,0,0,1-1.848,0c-.231-1.849,4.621-4.39,2.08-7.163-1.387-1.618-7.395-3.466-3-6.008-6.239-2.542-12.247-6.932-12.478-14.327,0-6.008,3-14.1-2.773-17.793s-6.932-12.478-14.1-14.1c-.924-.231-12.94-3.7-9.243.693-3,.462-2.542,4.622-4.159,5.777-.693.462-3.466.462-4.853,1.618-2.08,1.618-2.542-.231-3.7-1.155-2.08-1.618-5.315-3.928-7.626-4.622-2.542-.693-3.235,4.39-6.008,2.542-.693,4.622-6.7,7.857-9.705,10.861-1.386,1.386-3,.693-4.159-.693-1.386-1.618.231-4.39,1.156-6.008a12.525,12.525,0,0,0,1.848-6.932c0-1.618-1.386-4.39-.924-5.777a9.047,9.047,0,0,1,1.848-2.311c.924-1.386.231-1.386.462-3,.693-3.235,2.08-4.853.924-8.088-1.617-4.159,1.618-10.63-6.008-8.781a2.252,2.252,0,0,0-2.08.924c-.924,1.618-.924.231-2.311.462-2.542.462-3.466-.462-4.39-2.773-1.156-3.235,3.928-7.163,2.311-9.705-.693-.924-2.542-4.159-3.466-4.622-2.08-.924-2.773,1.386-4.621,2.08-1.156.231-1.156-.231-1.156-.924" transform="translate(1484.2 172.156)" fill="#5a5694"/></g></svg>