<svg xmlns="http://www.w3.org/2000/svg" width="542.818" height="232.926" viewBox="0 0 542.818 232.926"><g transform="translate(0 1.5)"><g transform="translate(10.821)"><path d="M-857.3-891.1h0" transform="translate(1306.781 1019.35)" fill="none" stroke="#5a5694" stroke-linecap="round" stroke-miterlimit="3.974" stroke-width="3" stroke-dasharray="0 8"/><path d="M-855.844-909.9h0" transform="translate(1307.139 1009.717)" fill="none" stroke="#5a5694" stroke-linecap="round" stroke-miterlimit="3.974" stroke-width="3" stroke-dasharray="0 8"/><path d="M-854.849-907.6h0" transform="translate(1307.96 1010.896)" fill="none" stroke="#5a5694" stroke-linecap="round" stroke-miterlimit="3.974" stroke-width="3" stroke-dasharray="0 8"/><path d="M-851.1-916.9h0" transform="translate(1309.958 1006.13)" fill="none" stroke="#5a5694" stroke-linecap="round" stroke-miterlimit="3.974" stroke-width="3" stroke-dasharray="0 8"/><path d="M-849.3-912.3c0,1.039,4.714,0,0,0" transform="translate(1310.88 1008.487)" fill="none" stroke="#5a5694" stroke-linecap="round" stroke-miterlimit="3.974" stroke-width="3" stroke-dasharray="0 8"/><path d="M-847.4-919.5c0,5.3,8.14,0,0,0" transform="translate(1311.854 1004.798)" fill="none" stroke="#5a5694" stroke-linecap="round" stroke-miterlimit="3.974" stroke-width="3" stroke-dasharray="0 8"/><path d="M-846.5-911.2c0,6.661,12.491,2.154,15.729,2.873A42.081,42.081,0,0,0-846.5-911.2" transform="translate(1312.315 1009.05)" fill="none" stroke="#5a5694" stroke-linecap="round" stroke-miterlimit="3.974" stroke-width="3" stroke-dasharray="0 8"/><path d="M-829.985-849.594c-3.1,6.2,16.134-8.385,15.086-7.638-1.394,1-9.289-9.109-15.086,7.638" transform="translate(1320.603 1035.616)" fill="none" stroke="#5a5694" stroke-linecap="round" stroke-miterlimit="3.974" stroke-width="3" stroke-dasharray="0 8"/><path d="M-820.1-851.739c6.618-3.309-9.171-.764,0,0" transform="translate(1324.331 1038.669)" fill="none" stroke="#5a5694" stroke-linecap="round" stroke-miterlimit="3.974" stroke-width="3" stroke-dasharray="0 8"/><path d="M-822.8-866.9h0" transform="translate(1324.458 1031.75)" fill="none" stroke="#5a5694" stroke-linecap="round" stroke-miterlimit="3.974" stroke-width="3" stroke-dasharray="0 8"/><path d="M-878.682-914c3.6-10.8,25.214-7.4,33.121-1.966,1.96,1.346,1.012,21.691,3.327,26.013,3.1-4.334,3.354,7.925,16.031,2.117,8.616-3.947,11.267-17.379,21.93-18.527,51.025-5.495,37.507,65.963,37.507,98.683-17.149-8.2-8.359-11.645-24.047-11.645,2.719,0-.841-11.606-2.269-12.855a10.717,10.717,0,0,0,5.445-1.21,6.629,6.629,0,0,1-7.713-2.874,7.049,7.049,0,0,1,7.259.605c-10.909-3.9-9.672-17.278-14.169-20.8-6.565-5.15-41.162-18.239-34.983-19.123-12.346-4.115-12.7.944-12.7-13.46-1.378,2.756-7.025,15.986-10.738,14.973,3.584,1.075-7.919-21.833-10.453-16.883,3.05-5.957,18.991-4.23,22.553-8.979-14.8.926-33.212-3.681-30.1-14.065" transform="translate(1295.647 1003.987)" fill="none" stroke="#5a5694" stroke-linecap="round" stroke-miterlimit="3.974" stroke-width="3" stroke-dasharray="0 8"/><path d="M-1144.149-943.277c3.773,2.515-4.758-7.66-5.9-6.806q-1.118,5.535,5.9,6.806" transform="translate(1156.703 989.102)" fill="none" stroke="#5a5694" stroke-linecap="round" stroke-miterlimit="3.974" stroke-width="3" stroke-dasharray="0 8"/><path d="M-967.7-850.018c-2.924,11.7,8.94,2.464,12.1,4.991-.5-4.271-5.452-41.265,5.9-38.112,4.536,1.417,2.379,27.013,11.494,29.038-2.441-.443,10.623-7.426,10.662-7.562,2.024-6.969-17.619-22.931-17.619-32.819,5.389,4.49,24.634-14,24.5-14.216-.446-.644-10.7-3.592-6.05,1.059-6.042,0-47.023,14-32.819-11.343,11.663-20.8,48.343,14.179,58.227-20.417-4.3.717-8.565,11.113-12.873,10.682-7.249-.728-25.487-6.122-30.381-4.935-20.748,5.035-14.115,12.907-17.846,27.828.038.074-16.019,24.768-11.192,35.39,7.607-8.875,8.642,16.989,5.9,20.417" transform="translate(1246.73 994.602)" fill="none" stroke="#5a5694" stroke-linecap="round" stroke-miterlimit="3.974" stroke-width="3" stroke-dasharray="0 8"/><path d="M-949.476-881.1c-6.482,2.255,6.763,10.145,0,0" transform="translate(1258.608 1024.474)" fill="none" stroke="#5a5694" stroke-linecap="round" stroke-miterlimit="3.974" stroke-width="3" stroke-dasharray="0 8"/><path d="M-949.583-921h0" transform="translate(1258.412 1004.03)" fill="none" stroke="#5a5694" stroke-linecap="round" stroke-miterlimit="3.974" stroke-width="3" stroke-dasharray="0 8"/><path d="M-948.531-921.8h0" transform="translate(1258.873 1003.62)" fill="none" stroke="#5a5694" stroke-linecap="round" stroke-miterlimit="3.974" stroke-width="3" stroke-dasharray="0 8"/><path d="M-944.894-874.387c.747-1,2.942-11.682.907-10.587-7.2,3.6-1.4,8.628-.907,10.587" transform="translate(1260.529 1022.449)" fill="none" stroke="#5a5694" stroke-linecap="round" stroke-miterlimit="3.974" stroke-width="3" stroke-dasharray="0 8"/><path d="M-940.329-887c-4.844,0-5.376,14.285-2.874,16.787,4.458-6.686,2.874-9.439,2.874-16.787" transform="translate(1262.013 1021.451)" fill="none" stroke="#5a5694" stroke-linecap="round" stroke-miterlimit="3.974" stroke-width="3" stroke-dasharray="0 8"/><path d="M-938.768-909.31c0-7.854-5.136-4.313-4.084-.454q2.788-6.277,4.084.454" transform="translate(1262.873 1007.615)" fill="none" stroke="#5a5694" stroke-linecap="round" stroke-miterlimit="3.974" stroke-width="3" stroke-dasharray="0 8"/><path d="M-941.087-890.6c-10.9,4.086,12.456,1.246,0,0" transform="translate(1262.318 1019.606)" fill="none" stroke="#5a5694" stroke-linecap="round" stroke-miterlimit="3.974" stroke-width="3" stroke-dasharray="0 8"/><path d="M-939.549-914.7h0" transform="translate(1264.561 1007.258)" fill="none" stroke="#5a5694" stroke-linecap="round" stroke-miterlimit="3.974" stroke-width="3" stroke-dasharray="0 8"/><path d="M-938.944-910.4h0" transform="translate(1264.56 1009.461)" fill="none" stroke="#5a5694" stroke-linecap="round" stroke-miterlimit="3.974" stroke-width="3" stroke-dasharray="0 8"/><path d="M-938.2-879.6h0" transform="translate(1265.329 1025.242)" fill="none" stroke="#5a5694" stroke-linecap="round" stroke-miterlimit="3.974" stroke-width="3" stroke-dasharray="0 8"/><path d="M-936.9-877.7h0" transform="translate(1265.995 1026.216)" fill="none" stroke="#5a5694" stroke-linecap="round" stroke-miterlimit="3.974" stroke-width="3" stroke-dasharray="0 8"/><path d="M-934.7-874.1h0" transform="translate(1267.123 1028.06)" fill="none" stroke="#5a5694" stroke-linecap="round" stroke-miterlimit="3.974" stroke-width="3" stroke-dasharray="0 8"/><path d="M-930.89-910.635c-4.657,6.447,9.926,3.362,10.435,1.664-2.178.363-7.746-2.624-10.435-1.664" transform="translate(1268.605 1009.242)" fill="none" stroke="#5a5694" stroke-linecap="round" stroke-miterlimit="3.974" stroke-width="3" stroke-dasharray="0 8"/><path d="M-923.346-948.9h0" transform="translate(1272.707 989.734)" fill="none" stroke="#5a5694" stroke-linecap="round" stroke-miterlimit="3.974" stroke-width="3" stroke-dasharray="0 8"/><path d="M-920.611-952.874c3.011-5.42-9.227-4.194,0,0" transform="translate(1272.543 985.843)" fill="none" stroke="#5a5694" stroke-linecap="round" stroke-miterlimit="3.974" stroke-width="3" stroke-dasharray="0 8"/><path d="M-923.508-909.516c-2.424,2.666,12.147-1.712,10.133.3l-10.133-.3" transform="translate(1272.717 1009.787)" fill="none" stroke="#5a5694" stroke-linecap="round" stroke-miterlimit="3.974" stroke-width="3" stroke-dasharray="0 8"/><path d="M-919.088-908c-4.643.929,5.936,11.874,0,0" transform="translate(1274.499 1010.69)" fill="none" stroke="#5a5694" stroke-linecap="round" stroke-miterlimit="3.974" stroke-width="3" stroke-dasharray="0 8"/><path d="M-911.772-888.974c18.631-9.316-10.11-11.2-7.26-5.142l7.26,5.142" transform="translate(1275.048 1016.014)" fill="none" stroke="#5a5694" stroke-linecap="round" stroke-miterlimit="3.974" stroke-width="3" stroke-dasharray="0 8"/><path d="M-913.6-957.132h0" transform="translate(1277.626 984.354)" fill="none" stroke="#5a5694" stroke-linecap="round" stroke-miterlimit="3.974" stroke-width="3" stroke-dasharray="0 8"/><path d="M-913.5-957.244q2.518-3.289.983-6.6c-.452-.808-1.1,6.509-.983,6.6" transform="translate(1277.98 982.047)" fill="none" stroke="#5a5694" stroke-linecap="round" stroke-miterlimit="3.974" stroke-width="3" stroke-dasharray="0 8"/><path d="M-909-922.581c-5.311-2.361,3.3,8.25,0,0" transform="translate(1279.381 1003.039)" fill="none" stroke="#5a5694" stroke-linecap="round" stroke-miterlimit="3.974" stroke-width="3" stroke-dasharray="0 8"/><path d="M-909.6-919.8h0" transform="translate(1279.983 1004.644)" fill="none" stroke="#5a5694" stroke-linecap="round" stroke-miterlimit="3.974" stroke-width="3" stroke-dasharray="0 8"/><path d="M-908.9-932.5h0" transform="translate(1280.342 998.137)" fill="none" stroke="#5a5694" stroke-linecap="round" stroke-miterlimit="3.974" stroke-width="3" stroke-dasharray="0 8"/><path d="M-907.25-922.4c.275-.414-2.656,11.291,3.668,6.9.295-.2-3.643-6.875-3.668-6.9" transform="translate(1280.96 1003.308)" fill="none" stroke="#5a5694" stroke-linecap="round" stroke-miterlimit="3.974" stroke-width="3" stroke-dasharray="0 8"/><path d="M-908.4-928.3h0" transform="translate(1280.598 1000.289)" fill="none" stroke="#5a5694" stroke-linecap="round" stroke-miterlimit="3.974" stroke-width="3" stroke-dasharray="0 8"/><path d="M-907.621-912.553c-5.128,4.2,9.123,4.826,7.429,2.193q-2.591-3.7-7.429-2.193" transform="translate(1280.424 1008.135)" fill="none" stroke="#5a5694" stroke-linecap="round" stroke-miterlimit="3.974" stroke-width="3" stroke-dasharray="0 8"/><path d="M-907.916-931.5c-1.224,0,0,1.839,0,0" transform="translate(1280.568 998.65)" fill="none" stroke="#5a5694" stroke-linecap="round" stroke-miterlimit="3.974" stroke-width="3" stroke-dasharray="0 8"/><path d="M-905.309-915.416c.192,1.729,4.375,13.375,8.016,11.192a23.245,23.245,0,0,1-5.2-16.787,23.089,23.089,0,0,1,10.947,2.117c-8.341-3.792-5.461-11.238-2.117-17.09-4.05-1.066-10.308,11.909-12.1,8.923-.715-1.074,4.9-14.036,3.932-16.939-11.713,0-2.869,23.711-3.479,28.584" transform="translate(1280.834 992.245)" fill="none" stroke="#5a5694" stroke-linecap="round" stroke-miterlimit="3.974" stroke-width="3" stroke-dasharray="0 8"/><path d="M-906.816-914.9c-2.692,1.8,2.145,1.072,0,0" transform="translate(1280.98 1007.155)" fill="none" stroke="#5a5694" stroke-linecap="round" stroke-miterlimit="3.974" stroke-width="3" stroke-dasharray="0 8"/><path d="M-907.4-896.8h0" transform="translate(1281.11 1016.429)" fill="none" stroke="#5a5694" stroke-linecap="round" stroke-miterlimit="3.974" stroke-width="3" stroke-dasharray="0 8"/><path d="M-906.313-897.8c-1.151,1.727,2.045,2.045,0,0" transform="translate(1281.536 1015.917)" fill="none" stroke="#5a5694" stroke-linecap="round" stroke-miterlimit="3.974" stroke-width="3" stroke-dasharray="0 8"/><path d="M-904.141-899.8h0" transform="translate(1282.238 1014.892)" fill="none" stroke="#5a5694" stroke-linecap="round" stroke-miterlimit="3.974" stroke-width="3" stroke-dasharray="0 8"/><path d="M-880.814-892.085q4.142,4.737,9.66,4.046c6.369-14.985-38.593-17.374-33.4-3.289,0-5.135,23.235-3.556,23.745-.756" transform="translate(1282.352 1014.437)" fill="none" stroke="#5a5694" stroke-linecap="round" stroke-miterlimit="3.974" stroke-width="3" stroke-dasharray="0 8"/><path d="M-903.847-894c-2.7,1.35,7.954,1.989,0,0" transform="translate(1282.7 1017.864)" fill="none" stroke="#5a5694" stroke-linecap="round" stroke-miterlimit="3.974" stroke-width="3" stroke-dasharray="0 8"/><path d="M-903-944.542h0" transform="translate(1283.365 991.425)" fill="none" stroke="#5a5694" stroke-linecap="round" stroke-miterlimit="3.974" stroke-width="3" stroke-dasharray="0 8"/><path d="M-901.927-939.784q6.5-1.951,3.478-8.016-4.589,2.491-3.478,8.016" transform="translate(1283.804 990.298)" fill="none" stroke="#5a5694" stroke-linecap="round" stroke-miterlimit="3.974" stroke-width="3" stroke-dasharray="0 8"/><path d="M-900.792-894.7c-1.422,2.132,2.532.844,0,0" transform="translate(1284.333 1017.505)" fill="none" stroke="#5a5694" stroke-linecap="round" stroke-miterlimit="3.974" stroke-width="3" stroke-dasharray="0 8"/><path d="M-899.8-894.9h0" transform="translate(1285.005 1017.403)" fill="none" stroke="#5a5694" stroke-linecap="round" stroke-miterlimit="3.974" stroke-width="3" stroke-dasharray="0 8"/><path d="M-893.5-925.1h0" transform="translate(1288.232 1001.929)" fill="none" stroke="#5a5694" stroke-linecap="round" stroke-miterlimit="3.974" stroke-width="3" stroke-dasharray="0 8"/><path d="M-887.657-906.192c2.4.96,6.6.806,4.386-3.63-1.134-2.108-12.225,2.758-4.386,3.63" transform="translate(1289.8 1009.488)" fill="none" stroke="#5a5694" stroke-linecap="round" stroke-miterlimit="3.974" stroke-width="3" stroke-dasharray="0 8"/><path d="M-889.09-915.2h0" transform="translate(1289.872 1007.001)" fill="none" stroke="#5a5694" stroke-linecap="round" stroke-miterlimit="3.974" stroke-width="3" stroke-dasharray="0 8"/><path d="M-887.7-925h0" transform="translate(1291.204 1001.98)" fill="none" stroke="#5a5694" stroke-linecap="round" stroke-miterlimit="3.974" stroke-width="3" stroke-dasharray="0 8"/><path d="M-881.309-919.485c-7.179-2.154,6.812-2.872,6.673-2,.74-4.645-11.242-3.848-11.361-1.323q2.359-.513-.3.454c2.6,3.341,4.4.523,4.991,2.874" transform="translate(1291.922 1002.061)" fill="none" stroke="#5a5694" stroke-linecap="round" stroke-miterlimit="3.974" stroke-width="3" stroke-dasharray="0 8"/><path d="M-885.091-917.508c-.688,3.214,12.621-3.787,0,0" transform="translate(1292.528 1005.226)" fill="none" stroke="#5a5694" stroke-linecap="round" stroke-miterlimit="3.974" stroke-width="3" stroke-dasharray="0 8"/><path d="M-883.029-921.4c-5.52,2.76,2.514.913,0,0" transform="translate(1292.583 1003.825)" fill="none" stroke="#5a5694" stroke-linecap="round" stroke-miterlimit="3.974" stroke-width="3" stroke-dasharray="0 8"/><path d="M-880.751-917.3q-4.857,2.312-.3,5.747,4.011-2.3.3-5.747" transform="translate(1293.481 1005.925)" fill="none" stroke="#5a5694" stroke-linecap="round" stroke-miterlimit="3.974" stroke-width="3" stroke-dasharray="0 8"/><path d="M-879.646-916.5h0" transform="translate(1295.099 1006.335)" fill="none" stroke="#5a5694" stroke-linecap="round" stroke-miterlimit="3.974" stroke-width="3" stroke-dasharray="0 8"/><path d="M-879-889.8h0" transform="translate(1295.662 1020.016)" fill="none" stroke="#5a5694" stroke-linecap="round" stroke-miterlimit="3.974" stroke-width="3" stroke-dasharray="0 8"/><path d="M-878.1-890.8h0" transform="translate(1296.123 1019.504)" fill="none" stroke="#5a5694" stroke-linecap="round" stroke-miterlimit="3.974" stroke-width="3" stroke-dasharray="0 8"/><path d="M-863.5-889.5h0" transform="translate(1303.604 1020.17)" fill="none" stroke="#5a5694" stroke-linecap="round" stroke-miterlimit="3.974" stroke-width="3" stroke-dasharray="0 8"/><path d="M-937.6-834.4c4.035,3.026,15.7,2.341,18.753-12.4-5.575.776-16.679,5.139-18.753,12.4" transform="translate(1265.636 1042.048)" fill="none" stroke="#5a5694" stroke-linecap="round" stroke-miterlimit="3.974" stroke-width="3" stroke-dasharray="0 8"/><path d="M-971.7-854.7h0" transform="translate(1247.857 1038)" fill="none" stroke="#5a5694" stroke-linecap="round" stroke-miterlimit="3.974" stroke-width="3" stroke-dasharray="0 8"/><path d="M-1077.39-868.5h0" transform="translate(1193.39 1030.93)" fill="none" stroke="#5a5694" stroke-linecap="round" stroke-miterlimit="3.974" stroke-width="3" stroke-dasharray="0 8"/><path d="M-1061.784-872.022c-7.925-5.661-12.657,4.111-14.216,9.831,1.137,2.275,25.813,8.852,36.751,11.494,8.7,2.1,59.951,18.95,68.813,14.519,6.791-3.4-32.115-26.432-40.229-28.13-8.274-1.732-39.777,4.763-51.118-7.713" transform="translate(1194.723 1028.251)" fill="none" stroke="#5a5694" stroke-linecap="round" stroke-miterlimit="3.974" stroke-width="3" stroke-dasharray="0 8"/><path d="M-1050.4-858.6h0" transform="translate(1207.84 1036.002)" fill="none" stroke="#5a5694" stroke-linecap="round" stroke-miterlimit="3.974" stroke-width="3" stroke-dasharray="0 8"/><path d="M-1018.936-865.278c-2.279-.325,3.7,4.664,13.158,1.512a22.852,22.852,0,0,0-13.158-1.512" transform="translate(1223.713 1032.396)" fill="none" stroke="#5a5694" stroke-linecap="round" stroke-miterlimit="3.974" stroke-width="3" stroke-dasharray="0 8"/><path d="M-1020.844-875.5h0" transform="translate(1222.596 1027.343)" fill="none" stroke="#5a5694" stroke-linecap="round" stroke-miterlimit="3.974" stroke-width="3" stroke-dasharray="0 8"/><path d="M-1008.5-864h0" transform="translate(1229.308 1033.236)" fill="none" stroke="#5a5694" stroke-linecap="round" stroke-miterlimit="3.974" stroke-width="3" stroke-dasharray="0 8"/><path d="M-1007.154-855.044c-1.29,2.9,7.108,5.847,7.108,9.679,0-2.037,9.257-4.354,6.5-7.108a22.713,22.713,0,0,0-13.612-2.571" transform="translate(1229.929 1037.74)" fill="none" stroke="#5a5694" stroke-linecap="round" stroke-miterlimit="3.974" stroke-width="3" stroke-dasharray="0 8"/><path d="M-1007-863.3h0" transform="translate(1230.077 1033.594)" fill="none" stroke="#5a5694" stroke-linecap="round" stroke-miterlimit="3.974" stroke-width="3" stroke-dasharray="0 8"/><path d="M-1000.749-865.9c-6.289,3.144,12.424,0,0,0" transform="translate(1232.598 1032.262)" fill="none" stroke="#5a5694" stroke-linecap="round" stroke-miterlimit="3.974" stroke-width="3" stroke-dasharray="0 8"/><path d="M-998.345-848.368c1.325-2.648-2.919-1.459,0,0" transform="translate(1233.974 1040.44)" fill="none" stroke="#5a5694" stroke-linecap="round" stroke-miterlimit="3.974" stroke-width="3" stroke-dasharray="0 8"/><path d="M-990.939-853.684c-1.028.514-3.37,8.317-5.293,6.806-5.4,9.182,19.2-12.37,5.293-6.806" transform="translate(1235.19 1038.044)" fill="none" stroke="#5a5694" stroke-linecap="round" stroke-miterlimit="3.974" stroke-width="3" stroke-dasharray="0 8"/><path d="M-977.205-844.844c9.029-4.815,3.107-2.128,11.645-.907-4.59-5.737,2.6,2.908,3.176-3.478,1.981-2.7-28.271-8.917-10.435,0-4.221,7.386-30.018-2.449-4.386,4.386" transform="translate(1239.604 1038.429)" fill="none" stroke="#5a5694" stroke-linecap="round" stroke-miterlimit="3.974" stroke-width="3" stroke-dasharray="0 8"/><path d="M-983.745-851.48c3.882-4.658-1.106-3.317,0,0" transform="translate(1241.909 1038.108)" fill="none" stroke="#5a5694" stroke-linecap="round" stroke-miterlimit="3.974" stroke-width="3" stroke-dasharray="0 8"/><path d="M-973-841.365c.812,1.827,17.5,10.411,19.888,9.112q2.75-6.209-3.857-7.449c-2.48,0-12.209-10.071-16.031-1.664" transform="translate(1247.498 1043.117)" fill="none" stroke="#5a5694" stroke-linecap="round" stroke-miterlimit="3.974" stroke-width="3" stroke-dasharray="0 8"/><path d="M-968.7-852.1c-3.908,6.839,3.539,1.376,0,0" transform="translate(1249.1 1039.333)" fill="none" stroke="#5a5694" stroke-linecap="round" stroke-miterlimit="3.974" stroke-width="3" stroke-dasharray="0 8"/><path d="M-967.8-850.7c1.531,4.592.522.174,0,0" transform="translate(1250.162 1040.05)" fill="none" stroke="#5a5694" stroke-linecap="round" stroke-miterlimit="3.974" stroke-width="3" stroke-dasharray="0 8"/><path d="M-965-845.693c.486-.277,44.995-.727,33.179-9.169q-3.174,2.289.7,1.305C-939.938-841.8-959-854.352-965-845.693" transform="translate(1251.597 1037.917)" fill="none" stroke="#5a5694" stroke-linecap="round" stroke-miterlimit="3.974" stroke-width="3" stroke-dasharray="0 8"/><path d="M-961.191-875a11.382,11.382,0,0,0,0,8.923V-875" transform="translate(1253.082 1027.599)" fill="none" stroke="#5a5694" stroke-linecap="round" stroke-miterlimit="3.974" stroke-width="3" stroke-dasharray="0 8"/><path d="M-960.027-864.3c-1.149,2.3,2.795,1.4,0,0" transform="translate(1254.035 1033.082)" fill="none" stroke="#5a5694" stroke-linecap="round" stroke-miterlimit="3.974" stroke-width="3" stroke-dasharray="0 8"/><path d="M-958.7-862.2h0" transform="translate(1254.825 1034.158)" fill="none" stroke="#5a5694" stroke-linecap="round" stroke-miterlimit="3.974" stroke-width="3" stroke-dasharray="0 8"/><path d="M-953.3-833.249h0" transform="translate(1257.592 1048.915)" fill="none" stroke="#5a5694" stroke-linecap="round" stroke-miterlimit="3.974" stroke-width="3" stroke-dasharray="0 8"/><path d="M-951.8-833.363c0,3.739,7.108-4.265,0,0" transform="translate(1258.361 1048.273)" fill="none" stroke="#5a5694" stroke-linecap="round" stroke-miterlimit="3.974" stroke-width="3" stroke-dasharray="0 8"/><path d="M-943.164-830.661q-.937,6.193,6.352-1.21-1.706-5.438-6.352,1.21" transform="translate(1262.731 1048.444)" fill="none" stroke="#5a5694" stroke-linecap="round" stroke-miterlimit="3.974" stroke-width="3" stroke-dasharray="0 8"/><path d="M-942.7-850.9c1.41,2.819,3.336-4.449,0,0" transform="translate(1263.024 1039.19)" fill="none" stroke="#5a5694" stroke-linecap="round" stroke-miterlimit="3.974" stroke-width="3" stroke-dasharray="0 8"/><path d="M-940.978-852.965c-5.118,5.118,7.7-4.622,0,0" transform="translate(1263.268 1038.232)" fill="none" stroke="#5a5694" stroke-linecap="round" stroke-miterlimit="3.974" stroke-width="3" stroke-dasharray="0 8"/><path d="M-938.542-837.2h0" transform="translate(1264.612 1046.967)" fill="none" stroke="#5a5694" stroke-linecap="round" stroke-miterlimit="3.974" stroke-width="3" stroke-dasharray="0 8"/><path d="M-938.921-853.44c5.691,5.691-7.473,2.362,6.352-.151-.113-.113-6.485.168-6.352.151" transform="translate(1264.84 1038.555)" fill="none" stroke="#5a5694" stroke-linecap="round" stroke-miterlimit="3.974" stroke-width="3" stroke-dasharray="0 8"/><path d="M-934.207-852.648c-4.52,4.52,10.649-3.043,0,0" transform="translate(1266.931 1038.671)" fill="none" stroke="#5a5694" stroke-linecap="round" stroke-miterlimit="3.974" stroke-width="3" stroke-dasharray="0 8"/><path d="M-930.365-854.7c-1.463,1.828-3.781,8.318,6.806,3.025,4.223-2.111-7.883-2.89-6.806-3.025" transform="translate(1268.685 1038)" fill="none" stroke="#5a5694" stroke-linecap="round" stroke-miterlimit="3.974" stroke-width="3" stroke-dasharray="0 8"/><path d="M-921.288-854.6h0" transform="translate(1273.22 1038.052)" fill="none" stroke="#5a5694" stroke-linecap="round" stroke-miterlimit="3.974" stroke-width="3" stroke-dasharray="0 8"/><path d="M-920.8-853.95a18.127,18.127,0,0,0,11.645-3.479c-2.985-3.336-11.645-1.494-11.645,3.479" transform="translate(1274.245 1035.738)" fill="none" stroke="#5a5694" stroke-linecap="round" stroke-miterlimit="3.974" stroke-width="3" stroke-dasharray="0 8"/><path d="M-908.246-860.1h0" transform="translate(1280.444 1035.234)" fill="none" stroke="#5a5694" stroke-linecap="round" stroke-miterlimit="3.974" stroke-width="3" stroke-dasharray="0 8"/><path d="M-906.4-854.4h0" transform="translate(1281.623 1038.154)" fill="none" stroke="#5a5694" stroke-linecap="round" stroke-miterlimit="3.974" stroke-width="3" stroke-dasharray="0 8"/><path d="M-905.4-855c-.183,1.19,8.2,2.343,0,0" transform="translate(1282.134 1037.847)" fill="none" stroke="#5a5694" stroke-linecap="round" stroke-miterlimit="3.974" stroke-width="3" stroke-dasharray="0 8"/><path d="M-903-854.1c0,1.429,2.353,0,0,0" transform="translate(1283.365 1038.308)" fill="none" stroke="#5a5694" stroke-linecap="round" stroke-miterlimit="3.974" stroke-width="3" stroke-dasharray="0 8"/><path d="M-899-863.9h0" transform="translate(1285.107 1033.286)" fill="none" stroke="#5a5694" stroke-linecap="round" stroke-miterlimit="3.974" stroke-width="3" stroke-dasharray="0 8"/><path d="M-897.3-854.2h0" transform="translate(1286.286 1038.257)" fill="none" stroke="#5a5694" stroke-linecap="round" stroke-miterlimit="3.974" stroke-width="3" stroke-dasharray="0 8"/><path d="M-890.876-857.548c-6.586,6.586,10.652-1.331,0,0" transform="translate(1288.784 1036.463)" fill="none" stroke="#5a5694" stroke-linecap="round" stroke-miterlimit="3.974" stroke-width="3" stroke-dasharray="0 8"/><path d="M-882.7-851.827h0" transform="translate(1293.766 1038.001)" fill="none" stroke="#5a5694" stroke-linecap="round" stroke-miterlimit="3.974" stroke-width="3" stroke-dasharray="0 8"/><path d="M-882-860.2h0" transform="translate(1294.125 1035.182)" fill="none" stroke="#5a5694" stroke-linecap="round" stroke-miterlimit="3.974" stroke-width="3" stroke-dasharray="0 8"/><path d="M-880.64-860.9c-.918,1.836,2.167,0,0,0" transform="translate(1294.731 1034.824)" fill="none" stroke="#5a5694" stroke-linecap="round" stroke-miterlimit="3.974" stroke-width="3" stroke-dasharray="0 8"/><path d="M-874.065-863.5c-1.7.142-6.564,8.4-5.954,10.209,1.358,4.026,9.144-8.082,5.954-10.209" transform="translate(1295.113 1033.492)" fill="none" stroke="#5a5694" stroke-linecap="round" stroke-miterlimit="3.974" stroke-width="3" stroke-dasharray="0 8"/><path d="M-875.3-863.5h0" transform="translate(1297.558 1033.492)" fill="none" stroke="#5a5694" stroke-linecap="round" stroke-miterlimit="3.974" stroke-width="3" stroke-dasharray="0 8"/><path d="M-867.639-875.688c-3.055-3.055,4.265,6.4,0,0" transform="translate(1301.089 1026.926)" fill="none" stroke="#5a5694" stroke-linecap="round" stroke-miterlimit="3.974" stroke-width="3" stroke-dasharray="0 8"/><path d="M-867.4-876.8h0" transform="translate(1301.606 1026.677)" fill="none" stroke="#5a5694" stroke-linecap="round" stroke-miterlimit="3.974" stroke-width="3" stroke-dasharray="0 8"/><path d="M-867.2-870.077l4.083-8.923a57,57,0,0,0-4.083,8.923" transform="translate(1301.708 1025.55)" fill="none" stroke="#5a5694" stroke-linecap="round" stroke-miterlimit="3.974" stroke-width="3" stroke-dasharray="0 8"/><path d="M-857.353-871.7c-.057.511-.824,10.379,1.966,8.923q4.558-5.37-1.966-8.923" transform="translate(1306.683 1029.29)" fill="none" stroke="#5a5694" stroke-linecap="round" stroke-miterlimit="3.974" stroke-width="3" stroke-dasharray="0 8"/><path d="M-852.7-868h0" transform="translate(1308.984 1031.186)" fill="none" stroke="#5a5694" stroke-linecap="round" stroke-miterlimit="3.974" stroke-width="3" stroke-dasharray="0 8"/><path d="M-852.9-869.2h0" transform="translate(1309.035 1030.571)" fill="none" stroke="#5a5694" stroke-linecap="round" stroke-miterlimit="3.974" stroke-width="3" stroke-dasharray="0 8"/><path d="M-851.791-868.392c.908-3.932-1.059-1.361,0,0" transform="translate(1309.439 1029.914)" fill="none" stroke="#5a5694" stroke-linecap="round" stroke-miterlimit="3.974" stroke-width="3" stroke-dasharray="0 8"/><path d="M-1098.755-876.762c1.417-7.083-8.265,3.674,0,0" transform="translate(1181.332 1025.429)" fill="none" stroke="#5a5694" stroke-linecap="round" stroke-miterlimit="3.974" stroke-width="3" stroke-dasharray="0 8"/><path d="M-1153.744-974.842h0" transform="translate(1154.5 975.9)" fill="none" stroke="#5a5694" stroke-linecap="round" stroke-miterlimit="3.974" stroke-width="3" stroke-dasharray="0 8"/><path d="M-1128.576-968.9c-7.129,4.074-20.886-7.459-25.105-4.537-1.922,1.295,47.651,67.325,51.875,75.619,7.645,15.01,14.142,30.2,24.8,43.557,3.32,4.159,31.609,25.62,31.609,30.55,0-8.043,6.35-1.559,12.25-.454-9.885-1.977,20.608-60.734-13.158-41.439,7.471-11.208-13.125-27.341-11.192-28.887-.46-1.838-2-3.093-2.874-2.873a12.167,12.167,0,0,1,6.049-3.63c4.5-7.2-16.2-3.352-16.182-3.327q5.034,1.28,7.1-3.417c-.305,1.88-25.921-34.346-24.343-17-11.937-11.937-25.08-28.407-40.834-44.162" transform="translate(1154.892 976.916)" fill="none" stroke="#5a5694" stroke-linecap="round" stroke-miterlimit="3.974" stroke-width="3" stroke-dasharray="0 8"/><path d="M-1133.246-926.762c-.142-.153-1.155-7.439-6.655-10.738.443,2.884,5.074,7.972,6.655,10.738" transform="translate(1161.981 995.575)" fill="none" stroke="#5a5694" stroke-linecap="round" stroke-miterlimit="3.974" stroke-width="3" stroke-dasharray="0 8"/><path d="M-1137.583-942.185h0" transform="translate(1162.084 992.245)" fill="none" stroke="#5a5694" stroke-linecap="round" stroke-miterlimit="3.974" stroke-width="3" stroke-dasharray="0 8"/><path d="M-1129.236-920.569c.342-1.025-.564-2.258,0,0" transform="translate(1167.348 1003.599)" fill="none" stroke="#5a5694" stroke-linecap="round" stroke-miterlimit="3.974" stroke-width="3" stroke-dasharray="0 8"/><path d="M-1130.6-925.1c4.337,11.928,2.335-.212,0,0" transform="translate(1166.746 1001.928)" fill="none" stroke="#5a5694" stroke-linecap="round" stroke-miterlimit="3.974" stroke-width="3" stroke-dasharray="0 8"/><path d="M-1128.441-939.2h0" transform="translate(1167.31 994.704)" fill="none" stroke="#5a5694" stroke-linecap="round" stroke-miterlimit="3.974" stroke-width="3" stroke-dasharray="0 8"/><path d="M-1125.773-925.746h0" transform="translate(1167.515 1001.365)" fill="none" stroke="#5a5694" stroke-linecap="round" stroke-miterlimit="3.974" stroke-width="3" stroke-dasharray="0 8"/><path d="M-1122.724-905.554c1.9-.254-.846-15.77-4.991-10.587q-2.284,6.776,4.991,10.587" transform="translate(1167.945 1005.977)" fill="none" stroke="#5a5694" stroke-linecap="round" stroke-miterlimit="3.974" stroke-width="3" stroke-dasharray="0 8"/><path d="M-1118.1-903.265c-1.518-6.072-5.806-3.483,0,0" transform="translate(1171.639 1011.248)" fill="none" stroke="#5a5694" stroke-linecap="round" stroke-miterlimit="3.974" stroke-width="3" stroke-dasharray="0 8"/><path d="M-1118-899.713c.774,3.483,1.345-10.755,0,0" transform="translate(1173.202 1012.839)" fill="none" stroke="#5a5694" stroke-linecap="round" stroke-miterlimit="3.974" stroke-width="3" stroke-dasharray="0 8"/><path d="M-1113.713-893.87c0-.859-.319-7.65-2.571-6.806a7.869,7.869,0,0,0,2.571,6.806" transform="translate(1174.057 1014.406)" fill="none" stroke="#5a5694" stroke-linecap="round" stroke-miterlimit="3.974" stroke-width="3" stroke-dasharray="0 8"/><path d="M-1103.149-941.154c-1.779-8.3-7.334,10.266,0,0" transform="translate(1178.92 992.574)" fill="none" stroke="#5a5694" stroke-linecap="round" stroke-miterlimit="3.974" stroke-width="3" stroke-dasharray="0 8"/><path d="M-1097.409-937.615q-8.466-3.922-2.571,1.059,4.624,5.15,2.571-1.059" transform="translate(1181.195 994.631)" fill="none" stroke="#5a5694" stroke-linecap="round" stroke-miterlimit="3.974" stroke-width="3" stroke-dasharray="0 8"/><path d="M-1097.881-934.611q-4.466-5.719-2.893,1.021,3.2,5.4,2.893-1.021" transform="translate(1181.819 995.711)" fill="none" stroke="#5a5694" stroke-linecap="round" stroke-miterlimit="3.974" stroke-width="3" stroke-dasharray="0 8"/><path d="M-1092.234-930.414q-2.886-2.28-5.9-4.386a4.145,4.145,0,0,0-.454,4.083q6.4,4.823,6.352.3" transform="translate(1182.977 996.959)" fill="none" stroke="#5a5694" stroke-linecap="round" stroke-miterlimit="3.974" stroke-width="3" stroke-dasharray="0 8"/><path d="M-1092.195-931.268c-2.369-9.475-8.686,2.895,0,0" transform="translate(1184.148 996.905)" fill="none" stroke="#5a5694" stroke-linecap="round" stroke-miterlimit="3.974" stroke-width="3" stroke-dasharray="0 8"/><path d="M-1092.253-929.619c-1.048-5.239-2.352,3.528,0,0" transform="translate(1185.719 998.734)" fill="none" stroke="#5a5694" stroke-linecap="round" stroke-miterlimit="3.974" stroke-width="3" stroke-dasharray="0 8"/><path d="M-1091.29-933.693h0" transform="translate(1186.268 997.061)" fill="none" stroke="#5a5694" stroke-linecap="round" stroke-miterlimit="3.974" stroke-width="3" stroke-dasharray="0 8"/><path d="M-1090.681-930.911c-1.848-5.543-1.44,4.319,0,0" transform="translate(1186.566 998.06)" fill="none" stroke="#5a5694" stroke-linecap="round" stroke-miterlimit="3.974" stroke-width="3" stroke-dasharray="0 8"/><path d="M-1088.595-922.411c-4.649-3.719-1.264,6.32,0,0" transform="translate(1187.051 1002.87)" fill="none" stroke="#5a5694" stroke-linecap="round" stroke-miterlimit="3.974" stroke-width="3" stroke-dasharray="0 8"/><path d="M-1087.39-932.9h0" transform="translate(1188.266 997.625)" fill="none" stroke="#5a5694" stroke-linecap="round" stroke-miterlimit="3.974" stroke-width="3" stroke-dasharray="0 8"/><path d="M-1085.886-934.385c-2.553-6.125,1.1,8.834,0,0" transform="translate(1189.183 996.392)" fill="none" stroke="#5a5694" stroke-linecap="round" stroke-miterlimit="3.974" stroke-width="3" stroke-dasharray="0 8"/><path d="M-1085.693-931.641h0" transform="translate(1189.291 998.035)" fill="none" stroke="#5a5694" stroke-linecap="round" stroke-miterlimit="3.974" stroke-width="3" stroke-dasharray="0 8"/><path d="M-1081.634-933.059c-3.758-9.4,0,8.793,0,0" transform="translate(1190.98 996.427)" fill="none" stroke="#5a5694" stroke-linecap="round" stroke-miterlimit="3.974" stroke-width="3" stroke-dasharray="0 8"/><path d="M-1085.1-930.79a3.562,3.562,0,0,0-.3-1.21c.151.454.151.907.3,1.21" transform="translate(1189.906 998.393)" fill="none" stroke="#5a5694" stroke-linecap="round" stroke-miterlimit="3.974" stroke-width="3" stroke-dasharray="0 8"/><path d="M-1082.854-922.1c-6.667,6.665,4.36,2.379,0,0" transform="translate(1190.083 1003.466)" fill="none" stroke="#5a5694" stroke-linecap="round" stroke-miterlimit="3.974" stroke-width="3" stroke-dasharray="0 8"/><path d="M-1084-926.5h0" transform="translate(1190.624 1001.211)" fill="none" stroke="#5a5694" stroke-linecap="round" stroke-miterlimit="3.974" stroke-width="3" stroke-dasharray="0 8"/><path d="M-1083.3-925.1c.46,2.3,1.578,6.018,5.747,3.932a14.514,14.514,0,0,0-5.747-3.932" transform="translate(1190.982 1001.929)" fill="none" stroke="#5a5694" stroke-linecap="round" stroke-miterlimit="3.974" stroke-width="3" stroke-dasharray="0 8"/><path d="M-1082.241-931.7h0" transform="translate(1190.982 998.547)" fill="none" stroke="#5a5694" stroke-linecap="round" stroke-miterlimit="3.974" stroke-width="3" stroke-dasharray="0 8"/><path d="M-1083-926.9h0" transform="translate(1191.136 1001.006)" fill="none" stroke="#5a5694" stroke-linecap="round" stroke-miterlimit="3.974" stroke-width="3" stroke-dasharray="0 8"/><path d="M-1076.913-909.624c-2.21-2.946,10.339,22.6,15.426,18.149,6.978-6.107-15.2-25.68-15.426-18.149" transform="translate(1194.123 1008.987)" fill="none" stroke="#5a5694" stroke-linecap="round" stroke-miterlimit="3.974" stroke-width="3" stroke-dasharray="0 8"/><path d="M-1065.734-900c-1.723.86,1.789,1.791,0,0" transform="translate(1199.731 1014.79)" fill="none" stroke="#5a5694" stroke-linecap="round" stroke-miterlimit="3.974" stroke-width="3" stroke-dasharray="0 8"/><path d="M-1060.339-900.6h0" transform="translate(1202.049 1014.482)" fill="none" stroke="#5a5694" stroke-linecap="round" stroke-miterlimit="3.974" stroke-width="3" stroke-dasharray="0 8"/><path d="M-1058.438-902.843q-3.87,4.721-.076,8,1.643-2.872,4.31.472c4.271-4.271,1.308-9.657-4.235-8.469" transform="translate(1202.72 1013.247)" fill="none" stroke="#5a5694" stroke-linecap="round" stroke-miterlimit="3.974" stroke-width="3" stroke-dasharray="0 8"/><path d="M-1056.236-957.745c7.054,1.175-1.544-4.891,0,0" transform="translate(1204.752 984.211)" fill="none" stroke="#5a5694" stroke-linecap="round" stroke-miterlimit="3.974" stroke-width="3" stroke-dasharray="0 8"/><path d="M-1051.6-910.149h0" transform="translate(1207.225 1009.512)" fill="none" stroke="#5a5694" stroke-linecap="round" stroke-miterlimit="3.974" stroke-width="3" stroke-dasharray="0 8"/><path d="M-1048.862-911.312c-2.969-2.226-1.057,3.173,0,0" transform="translate(1207.814 1008.709)" fill="none" stroke="#5a5694" stroke-linecap="round" stroke-miterlimit="3.974" stroke-width="3" stroke-dasharray="0 8"/><path d="M-1042.581-915.268c-6.913-10.054,5.771,15,0,0" transform="translate(1210.758 1005.708)" fill="none" stroke="#5a5694" stroke-linecap="round" stroke-miterlimit="3.974" stroke-width="3" stroke-dasharray="0 8"/><path d="M-992.852-896.7q-4.694,3.977-1.512,9.679a9.727,9.727,0,0,0,1.512-9.679" transform="translate(1235.893 1016.481)" fill="none" stroke="#5a5694" stroke-linecap="round" stroke-miterlimit="3.974" stroke-width="3" stroke-dasharray="0 8"/><path d="M-992.5-895.6h0" transform="translate(1237.353 1017.044)" fill="none" stroke="#5a5694" stroke-linecap="round" stroke-miterlimit="3.974" stroke-width="3" stroke-dasharray="0 8"/><path d="M-984.7-953.9h0" transform="translate(1241.503 987.172)" fill="none" stroke="#5a5694" stroke-linecap="round" stroke-miterlimit="3.974" stroke-width="3" stroke-dasharray="0 8"/><path d="M-983.8-954.8h0" transform="translate(1241.964 986.711)" fill="none" stroke="#5a5694" stroke-linecap="round" stroke-miterlimit="3.974" stroke-width="3" stroke-dasharray="0 8"/><path d="M-983.3-960.5h0" transform="translate(1242.221 983.79)" fill="none" stroke="#5a5694" stroke-linecap="round" stroke-miterlimit="3.974" stroke-width="3" stroke-dasharray="0 8"/><path d="M-983.546-921.9h0" transform="translate(1241.862 1003.568)" fill="none" stroke="#5a5694" stroke-linecap="round" stroke-miterlimit="3.974" stroke-width="3" stroke-dasharray="0 8"/><path d="M-982-956h0" transform="translate(1242.887 986.096)" fill="none" stroke="#5a5694" stroke-linecap="round" stroke-miterlimit="3.974" stroke-width="3" stroke-dasharray="0 8"/><path d="M-976.2-945.1h0" transform="translate(1245.858 991.681)" fill="none" stroke="#5a5694" stroke-linecap="round" stroke-miterlimit="3.974" stroke-width="3" stroke-dasharray="0 8"/><path d="M-1049.83-916.543a8.766,8.766,0,0,1,3.781-6.806c-3.563,5.938,2.7-7.09,4.688-9.074-5.928,26.675,29.446,7.837,34.842,6.561,18.757-4.442,13.828,6.23,26.429-9.983,4.7-6.042,5.987-23.052,13.516-26.674,11.709-5.632,14.567,7.2,20.19,9.074.38-.464-7.778.913-8.167,1.059.318.127,20.755,36.4,21.627,35.087-2.855,4.894-9.788-.457-12.25-1.513,10.28,15.419-13.746,27.615-17.771,36.146-2.208,4.681,3.419,8.445-.681,14.821-.284.443-20.257,20.441-19.963,16.334.685-6.167-4.034-9.935-3.176-11.494-1.664,2.614-12.863,3.228-14.821-3.63,0,18.595-16.294-3.111-15.426-1.664-2.913,7.12-13.061-.092-16.485,2.571-9.785-11.565,1.827-20.379-10.587-27.828,3.4,2.264-7.569-21.166-5.747-22.988" transform="translate(1208.026 982.029)" fill="none" stroke="#5a5694" stroke-linecap="round" stroke-miterlimit="3.974" stroke-width="3" stroke-dasharray="0 8"/><path d="M-986.3-955.382c0-2.527,8.052,3.451,0,0" transform="translate(1240.683 986.083)" fill="none" stroke="#5a5694" stroke-linecap="round" stroke-miterlimit="3.974" stroke-width="3" stroke-dasharray="0 8"/><path d="M-982.7-961.1h0" transform="translate(1242.528 983.483)" fill="none" stroke="#5a5694" stroke-linecap="round" stroke-miterlimit="3.974" stroke-width="3" stroke-dasharray="0 8"/><path d="M-856.56-870.432c.744,4.462,1.877-4.933,3.327-7.108,1.134-1.892,6.47,11.916,1.21,11.229.192.026-6.671-4.274-4.537-4.121" transform="translate(1306.949 1026.207)" fill="none" stroke="#5a5694" stroke-linecap="round" stroke-miterlimit="3.974" stroke-width="3" stroke-dasharray="0 8"/><path d="M-854.417-870.7c7.3,4.865-4.714,1.414,0,0" transform="translate(1307.679 1029.802)" fill="none" stroke="#5a5694" stroke-linecap="round" stroke-miterlimit="3.974" stroke-width="3" stroke-dasharray="0 8"/></g><g transform="translate(0 10.821)"><path d="M-857.3-891.1h0" transform="translate(1306.781 1019.35)" fill="#5a5694"/><path d="M-855.844-909.9h0" transform="translate(1307.139 1009.717)" fill="#5a5694"/><path d="M-854.849-907.6h0" transform="translate(1307.96 1010.896)" fill="#5a5694"/><path d="M-851.1-916.9h0" transform="translate(1309.958 1006.13)" fill="#5a5694"/><path d="M-849.3-912.3c0,1.039,4.714,0,0,0" transform="translate(1310.88 1008.487)" fill="#5a5694"/><path d="M-847.4-919.5c0,5.3,8.14,0,0,0" transform="translate(1311.854 1004.798)" fill="#5a5694"/><path d="M-846.5-911.2c0,6.661,12.491,2.154,15.729,2.873A42.081,42.081,0,0,0-846.5-911.2" transform="translate(1312.315 1009.05)" fill="#5a5694"/><path d="M-829.985-849.594c-3.1,6.2,16.134-8.385,15.086-7.638-1.394,1-9.289-9.109-15.086,7.638" transform="translate(1320.603 1035.616)" fill="#5a5694"/><path d="M-820.1-851.739c6.618-3.309-9.171-.764,0,0" transform="translate(1324.331 1038.669)" fill="#5a5694"/><path d="M-822.8-866.9h0" transform="translate(1324.458 1031.75)" fill="#5a5694"/><path d="M-878.682-914c3.6-10.8,25.214-7.4,33.121-1.966,1.96,1.346,1.012,21.691,3.327,26.013,3.1-4.334,3.354,7.925,16.031,2.117,8.616-3.947,11.267-17.379,21.93-18.527,51.025-5.495,37.507,65.963,37.507,98.683-17.149-8.2-8.359-11.645-24.047-11.645,2.719,0-.841-11.606-2.269-12.855a10.717,10.717,0,0,0,5.445-1.21,6.629,6.629,0,0,1-7.713-2.874,7.049,7.049,0,0,1,7.259.605c-10.909-3.9-9.672-17.278-14.169-20.8-6.565-5.15-41.162-18.239-34.983-19.123-12.346-4.115-12.7.944-12.7-13.46-1.378,2.756-7.025,15.986-10.738,14.973,3.584,1.075-7.919-21.833-10.453-16.883,3.05-5.957,18.991-4.23,22.553-8.979-14.8.926-33.212-3.681-30.1-14.065" transform="translate(1295.647 1003.987)" fill="#5a5694"/><path d="M-1144.149-943.277c3.773,2.515-4.758-7.66-5.9-6.806q-1.118,5.535,5.9,6.806" transform="translate(1156.703 989.102)" fill="#5a5694"/><path d="M-967.7-850.018c-2.924,11.7,8.94,2.464,12.1,4.991-.5-4.271-5.452-41.265,5.9-38.112,4.536,1.417,2.379,27.013,11.494,29.038-2.441-.443,10.623-7.426,10.662-7.562,2.024-6.969-17.619-22.931-17.619-32.819,5.389,4.49,24.634-14,24.5-14.216-.446-.644-10.7-3.592-6.05,1.059-6.042,0-47.023,14-32.819-11.343,11.663-20.8,48.343,14.179,58.227-20.417-4.3.717-8.565,11.113-12.873,10.682-7.249-.728-25.487-6.122-30.381-4.935-20.748,5.035-14.115,12.907-17.846,27.828.038.074-16.019,24.768-11.192,35.39,7.607-8.875,8.642,16.989,5.9,20.417" transform="translate(1246.73 994.602)" fill="#5a5694"/><path d="M-949.476-881.1c-6.482,2.255,6.763,10.145,0,0" transform="translate(1258.608 1024.474)" fill="#5a5694"/><path d="M-949.583-921h0" transform="translate(1258.412 1004.03)" fill="#5a5694"/><path d="M-948.531-921.8h0" transform="translate(1258.873 1003.62)" fill="#5a5694"/><path d="M-944.894-874.387c.747-1,2.942-11.682.907-10.587-7.2,3.6-1.4,8.628-.907,10.587" transform="translate(1260.529 1022.449)" fill="#5a5694"/><path d="M-940.329-887c-4.844,0-5.376,14.285-2.874,16.787,4.458-6.686,2.874-9.439,2.874-16.787" transform="translate(1262.013 1021.451)" fill="#5a5694"/><path d="M-938.768-909.31c0-7.854-5.136-4.313-4.084-.454q2.788-6.277,4.084.454" transform="translate(1262.873 1007.615)" fill="#5a5694"/><path d="M-941.087-890.6c-10.9,4.086,12.456,1.246,0,0" transform="translate(1262.318 1019.606)" fill="#5a5694"/><path d="M-939.549-914.7h0" transform="translate(1264.561 1007.258)" fill="#5a5694"/><path d="M-938.944-910.4h0" transform="translate(1264.56 1009.461)" fill="#5a5694"/><path d="M-938.2-879.6h0" transform="translate(1265.329 1025.242)" fill="#5a5694"/><path d="M-936.9-877.7h0" transform="translate(1265.995 1026.216)" fill="#5a5694"/><path d="M-934.7-874.1h0" transform="translate(1267.123 1028.06)" fill="#5a5694"/><path d="M-930.89-910.635c-4.657,6.447,9.926,3.362,10.435,1.664-2.178.363-7.746-2.624-10.435-1.664" transform="translate(1268.605 1009.242)" fill="#5a5694"/><path d="M-923.346-948.9h0" transform="translate(1272.707 989.734)" fill="#5a5694"/><path d="M-920.611-952.874c3.011-5.42-9.227-4.194,0,0" transform="translate(1272.543 985.843)" fill="#5a5694"/><path d="M-923.508-909.516c-2.424,2.666,12.147-1.712,10.133.3l-10.133-.3" transform="translate(1272.717 1009.787)" fill="#5a5694"/><path d="M-919.088-908c-4.643.929,5.936,11.874,0,0" transform="translate(1274.499 1010.69)" fill="#5a5694"/><path d="M-911.772-888.974c18.631-9.316-10.11-11.2-7.26-5.142l7.26,5.142" transform="translate(1275.048 1016.014)" fill="#5a5694"/><path d="M-913.6-957.132h0" transform="translate(1277.626 984.354)" fill="#5a5694"/><path d="M-913.5-957.244q2.518-3.289.983-6.6c-.452-.808-1.1,6.509-.983,6.6" transform="translate(1277.98 982.047)" fill="#5a5694"/><path d="M-909-922.581c-5.311-2.361,3.3,8.25,0,0" transform="translate(1279.381 1003.039)" fill="#5a5694"/><path d="M-909.6-919.8h0" transform="translate(1279.983 1004.644)" fill="#5a5694"/><path d="M-908.9-932.5h0" transform="translate(1280.342 998.137)" fill="#5a5694"/><path d="M-907.25-922.4c.275-.414-2.656,11.291,3.668,6.9.295-.2-3.643-6.875-3.668-6.9" transform="translate(1280.96 1003.308)" fill="#5a5694"/><path d="M-908.4-928.3h0" transform="translate(1280.598 1000.289)" fill="#5a5694"/><path d="M-907.621-912.553c-5.128,4.2,9.123,4.826,7.429,2.193q-2.591-3.7-7.429-2.193" transform="translate(1280.424 1008.135)" fill="#5a5694"/><path d="M-907.916-931.5c-1.224,0,0,1.839,0,0" transform="translate(1280.568 998.65)" fill="#5a5694"/><path d="M-905.309-915.416c.192,1.729,4.375,13.375,8.016,11.192a23.245,23.245,0,0,1-5.2-16.787,23.089,23.089,0,0,1,10.947,2.117c-8.341-3.792-5.461-11.238-2.117-17.09-4.05-1.066-10.308,11.909-12.1,8.923-.715-1.074,4.9-14.036,3.932-16.939-11.713,0-2.869,23.711-3.479,28.584" transform="translate(1280.834 992.245)" fill="#5a5694"/><path d="M-906.816-914.9c-2.692,1.8,2.145,1.072,0,0" transform="translate(1280.98 1007.155)" fill="#5a5694"/><path d="M-907.4-896.8h0" transform="translate(1281.11 1016.429)" fill="#5a5694"/><path d="M-906.313-897.8c-1.151,1.727,2.045,2.045,0,0" transform="translate(1281.536 1015.917)" fill="#5a5694"/><path d="M-904.141-899.8h0" transform="translate(1282.238 1014.892)" fill="#5a5694"/><path d="M-880.814-892.085q4.142,4.737,9.66,4.046c6.369-14.985-38.593-17.374-33.4-3.289,0-5.135,23.235-3.556,23.745-.756" transform="translate(1282.352 1014.437)" fill="#5a5694"/><path d="M-903.847-894c-2.7,1.35,7.954,1.989,0,0" transform="translate(1282.7 1017.864)" fill="#5a5694"/><path d="M-903-944.542h0" transform="translate(1283.365 991.425)" fill="#5a5694"/><path d="M-901.927-939.784q6.5-1.951,3.478-8.016-4.589,2.491-3.478,8.016" transform="translate(1283.804 990.298)" fill="#5a5694"/><path d="M-900.792-894.7c-1.422,2.132,2.532.844,0,0" transform="translate(1284.333 1017.505)" fill="#5a5694"/><path d="M-899.8-894.9h0" transform="translate(1285.005 1017.403)" fill="#5a5694"/><path d="M-893.5-925.1h0" transform="translate(1288.232 1001.929)" fill="#5a5694"/><path d="M-887.657-906.192c2.4.96,6.6.806,4.386-3.63-1.134-2.108-12.225,2.758-4.386,3.63" transform="translate(1289.8 1009.488)" fill="#5a5694"/><path d="M-889.09-915.2h0" transform="translate(1289.872 1007.001)" fill="#5a5694"/><path d="M-887.7-925h0" transform="translate(1291.204 1001.98)" fill="#5a5694"/><path d="M-881.309-919.485c-7.179-2.154,6.812-2.872,6.673-2,.74-4.645-11.242-3.848-11.361-1.323q2.359-.513-.3.454c2.6,3.341,4.4.523,4.991,2.874" transform="translate(1291.922 1002.061)" fill="#5a5694"/><path d="M-885.091-917.508c-.688,3.214,12.621-3.787,0,0" transform="translate(1292.528 1005.226)" fill="#5a5694"/><path d="M-883.029-921.4c-5.52,2.76,2.514.913,0,0" transform="translate(1292.583 1003.825)" fill="#5a5694"/><path d="M-880.751-917.3q-4.857,2.312-.3,5.747,4.011-2.3.3-5.747" transform="translate(1293.481 1005.925)" fill="#5a5694"/><path d="M-879.646-916.5h0" transform="translate(1295.099 1006.335)" fill="#5a5694"/><path d="M-879-889.8h0" transform="translate(1295.662 1020.016)" fill="#5a5694"/><path d="M-878.1-890.8h0" transform="translate(1296.123 1019.504)" fill="#5a5694"/><path d="M-863.5-889.5h0" transform="translate(1303.604 1020.17)" fill="#5a5694"/><path d="M-937.6-834.4c4.035,3.026,15.7,2.341,18.753-12.4-5.575.776-16.679,5.139-18.753,12.4" transform="translate(1265.636 1042.048)" fill="#5a5694"/><path d="M-971.7-854.7h0" transform="translate(1247.857 1038)" fill="#5a5694"/><path d="M-1077.39-868.5h0" transform="translate(1193.39 1030.93)" fill="#5a5694"/><path d="M-1061.784-872.022c-7.925-5.661-12.657,4.111-14.216,9.831,1.137,2.275,25.813,8.852,36.751,11.494,8.7,2.1,59.951,18.95,68.813,14.519,6.791-3.4-32.115-26.432-40.229-28.13-8.274-1.732-39.777,4.763-51.118-7.713" transform="translate(1194.723 1028.251)" fill="#5a5694"/><path d="M-1050.4-858.6h0" transform="translate(1207.84 1036.002)" fill="#5a5694"/><path d="M-1018.936-865.278c-2.279-.325,3.7,4.664,13.158,1.512a22.852,22.852,0,0,0-13.158-1.512" transform="translate(1223.713 1032.396)" fill="#5a5694"/><path d="M-1020.844-875.5h0" transform="translate(1222.596 1027.343)" fill="#5a5694"/><path d="M-1008.5-864h0" transform="translate(1229.308 1033.236)" fill="#5a5694"/><path d="M-1007.154-855.044c-1.29,2.9,7.108,5.847,7.108,9.679,0-2.037,9.257-4.354,6.5-7.108a22.713,22.713,0,0,0-13.612-2.571" transform="translate(1229.929 1037.74)" fill="#5a5694"/><path d="M-1007-863.3h0" transform="translate(1230.077 1033.594)" fill="#5a5694"/><path d="M-1000.749-865.9c-6.289,3.144,12.424,0,0,0" transform="translate(1232.598 1032.262)" fill="#5a5694"/><path d="M-998.345-848.368c1.325-2.648-2.919-1.459,0,0" transform="translate(1233.974 1040.44)" fill="#5a5694"/><path d="M-990.939-853.684c-1.028.514-3.37,8.317-5.293,6.806-5.4,9.182,19.2-12.37,5.293-6.806" transform="translate(1235.19 1038.044)" fill="#5a5694"/><path d="M-977.205-844.844c9.029-4.815,3.107-2.128,11.645-.907-4.59-5.737,2.6,2.908,3.176-3.478,1.981-2.7-28.271-8.917-10.435,0-4.221,7.386-30.018-2.449-4.386,4.386" transform="translate(1239.604 1038.429)" fill="#5a5694"/><path d="M-983.745-851.48c3.882-4.658-1.106-3.317,0,0" transform="translate(1241.909 1038.108)" fill="#5a5694"/><path d="M-973-841.365c.812,1.827,17.5,10.411,19.888,9.112q2.75-6.209-3.857-7.449c-2.48,0-12.209-10.071-16.031-1.664" transform="translate(1247.498 1043.117)" fill="#5a5694"/><path d="M-968.7-852.1c-3.908,6.839,3.539,1.376,0,0" transform="translate(1249.1 1039.333)" fill="#5a5694"/><path d="M-967.8-850.7c1.531,4.592.522.174,0,0" transform="translate(1250.162 1040.05)" fill="#5a5694"/><path d="M-965-845.693c.486-.277,44.995-.727,33.179-9.169q-3.174,2.289.7,1.305C-939.938-841.8-959-854.352-965-845.693" transform="translate(1251.597 1037.917)" fill="#5a5694"/><path d="M-961.191-875a11.382,11.382,0,0,0,0,8.923V-875" transform="translate(1253.082 1027.599)" fill="#5a5694"/><path d="M-960.027-864.3c-1.149,2.3,2.795,1.4,0,0" transform="translate(1254.035 1033.082)" fill="#5a5694"/><path d="M-958.7-862.2h0" transform="translate(1254.825 1034.158)" fill="#5a5694"/><path d="M-953.3-833.249h0" transform="translate(1257.592 1048.915)" fill="#5a5694"/><path d="M-951.8-833.363c0,3.739,7.108-4.265,0,0" transform="translate(1258.361 1048.273)" fill="#5a5694"/><path d="M-943.164-830.661q-.937,6.193,6.352-1.21-1.706-5.438-6.352,1.21" transform="translate(1262.731 1048.444)" fill="#5a5694"/><path d="M-942.7-850.9c1.41,2.819,3.336-4.449,0,0" transform="translate(1263.024 1039.19)" fill="#5a5694"/><path d="M-940.978-852.965c-5.118,5.118,7.7-4.622,0,0" transform="translate(1263.268 1038.232)" fill="#5a5694"/><path d="M-938.542-837.2h0" transform="translate(1264.612 1046.967)" fill="#5a5694"/><path d="M-938.921-853.44c5.691,5.691-7.473,2.362,6.352-.151-.113-.113-6.485.168-6.352.151" transform="translate(1264.84 1038.555)" fill="#5a5694"/><path d="M-934.207-852.648c-4.52,4.52,10.649-3.043,0,0" transform="translate(1266.931 1038.671)" fill="#5a5694"/><path d="M-930.365-854.7c-1.463,1.828-3.781,8.318,6.806,3.025,4.223-2.111-7.883-2.89-6.806-3.025" transform="translate(1268.685 1038)" fill="#5a5694"/><path d="M-921.288-854.6h0" transform="translate(1273.22 1038.052)" fill="#5a5694"/><path d="M-920.8-853.95a18.127,18.127,0,0,0,11.645-3.479c-2.985-3.336-11.645-1.494-11.645,3.479" transform="translate(1274.245 1035.738)" fill="#5a5694"/><path d="M-908.246-860.1h0" transform="translate(1280.444 1035.234)" fill="#5a5694"/><path d="M-906.4-854.4h0" transform="translate(1281.623 1038.154)" fill="#5a5694"/><path d="M-905.4-855c-.183,1.19,8.2,2.343,0,0" transform="translate(1282.134 1037.847)" fill="#5a5694"/><path d="M-903-854.1c0,1.429,2.353,0,0,0" transform="translate(1283.365 1038.308)" fill="#5a5694"/><path d="M-899-863.9h0" transform="translate(1285.107 1033.286)" fill="#5a5694"/><path d="M-897.3-854.2h0" transform="translate(1286.286 1038.257)" fill="#5a5694"/><path d="M-890.876-857.548c-6.586,6.586,10.652-1.331,0,0" transform="translate(1288.784 1036.463)" fill="#5a5694"/><path d="M-882.7-851.827h0" transform="translate(1293.766 1038.001)" fill="#5a5694"/><path d="M-882-860.2h0" transform="translate(1294.125 1035.182)" fill="#5a5694"/><path d="M-880.64-860.9c-.918,1.836,2.167,0,0,0" transform="translate(1294.731 1034.824)" fill="#5a5694"/><path d="M-874.065-863.5c-1.7.142-6.564,8.4-5.954,10.209,1.358,4.026,9.144-8.082,5.954-10.209" transform="translate(1295.113 1033.492)" fill="#5a5694"/><path d="M-875.3-863.5h0" transform="translate(1297.558 1033.492)" fill="#5a5694"/><path d="M-867.639-875.688c-3.055-3.055,4.265,6.4,0,0" transform="translate(1301.089 1026.926)" fill="#5a5694"/><path d="M-867.4-876.8h0" transform="translate(1301.606 1026.677)" fill="#5a5694"/><path d="M-867.2-870.077l4.083-8.923a57,57,0,0,0-4.083,8.923" transform="translate(1301.708 1025.55)" fill="#5a5694"/><path d="M-857.353-871.7c-.057.511-.824,10.379,1.966,8.923q4.558-5.37-1.966-8.923" transform="translate(1306.683 1029.29)" fill="#5a5694"/><path d="M-852.7-868h0" transform="translate(1308.984 1031.186)" fill="#5a5694"/><path d="M-852.9-869.2h0" transform="translate(1309.035 1030.571)" fill="#5a5694"/><path d="M-851.791-868.392c.908-3.932-1.059-1.361,0,0" transform="translate(1309.439 1029.914)" fill="#5a5694"/><path d="M-1098.755-876.762c1.417-7.083-8.265,3.674,0,0" transform="translate(1181.332 1025.429)" fill="#5a5694"/><path d="M-1153.744-974.842h0" transform="translate(1154.5 975.9)" fill="#5a5694"/><path d="M-1128.576-968.9c-7.129,4.074-20.886-7.459-25.105-4.537-1.922,1.295,47.651,67.325,51.875,75.619,7.645,15.01,14.142,30.2,24.8,43.557,3.32,4.159,31.609,25.62,31.609,30.55,0-8.043,6.35-1.559,12.25-.454-9.885-1.977,20.608-60.734-13.158-41.439,7.471-11.208-13.125-27.341-11.192-28.887-.46-1.838-2-3.093-2.874-2.873a12.167,12.167,0,0,1,6.049-3.63c4.5-7.2-16.2-3.352-16.182-3.327q5.034,1.28,7.1-3.417c-.305,1.88-25.921-34.346-24.343-17-11.937-11.937-25.08-28.407-40.834-44.162" transform="translate(1154.892 976.916)" fill="#5a5694"/><path d="M-1133.246-926.762c-.142-.153-1.155-7.439-6.655-10.738.443,2.884,5.074,7.972,6.655,10.738" transform="translate(1161.981 995.575)" fill="#5a5694"/><path d="M-1137.583-942.185h0" transform="translate(1162.084 992.245)" fill="#5a5694"/><path d="M-1129.236-920.569c.342-1.025-.564-2.258,0,0" transform="translate(1167.348 1003.599)" fill="#5a5694"/><path d="M-1130.6-925.1c4.337,11.928,2.335-.212,0,0" transform="translate(1166.746 1001.928)" fill="#5a5694"/><path d="M-1128.441-939.2h0" transform="translate(1167.31 994.704)" fill="#5a5694"/><path d="M-1125.773-925.746h0" transform="translate(1167.515 1001.365)" fill="#5a5694"/><path d="M-1122.724-905.554c1.9-.254-.846-15.77-4.991-10.587q-2.284,6.776,4.991,10.587" transform="translate(1167.945 1005.977)" fill="#5a5694"/><path d="M-1118.1-903.265c-1.518-6.072-5.806-3.483,0,0" transform="translate(1171.639 1011.248)" fill="#5a5694"/><path d="M-1118-899.713c.774,3.483,1.345-10.755,0,0" transform="translate(1173.202 1012.839)" fill="#5a5694"/><path d="M-1113.713-893.87c0-.859-.319-7.65-2.571-6.806a7.869,7.869,0,0,0,2.571,6.806" transform="translate(1174.057 1014.406)" fill="#5a5694"/><path d="M-1103.149-941.154c-1.779-8.3-7.334,10.266,0,0" transform="translate(1178.92 992.574)" fill="#5a5694"/><path d="M-1097.409-937.615q-8.466-3.922-2.571,1.059,4.624,5.15,2.571-1.059" transform="translate(1181.195 994.631)" fill="#5a5694"/><path d="M-1097.881-934.611q-4.466-5.719-2.893,1.021,3.2,5.4,2.893-1.021" transform="translate(1181.819 995.711)" fill="#5a5694"/><path d="M-1092.234-930.414q-2.886-2.28-5.9-4.386a4.145,4.145,0,0,0-.454,4.083q6.4,4.823,6.352.3" transform="translate(1182.977 996.959)" fill="#5a5694"/><path d="M-1092.195-931.268c-2.369-9.475-8.686,2.895,0,0" transform="translate(1184.148 996.905)" fill="#5a5694"/><path d="M-1092.253-929.619c-1.048-5.239-2.352,3.528,0,0" transform="translate(1185.719 998.734)" fill="#5a5694"/><path d="M-1091.29-933.693h0" transform="translate(1186.268 997.061)" fill="#5a5694"/><path d="M-1090.681-930.911c-1.848-5.543-1.44,4.319,0,0" transform="translate(1186.566 998.06)" fill="#5a5694"/><path d="M-1088.595-922.411c-4.649-3.719-1.264,6.32,0,0" transform="translate(1187.051 1002.87)" fill="#5a5694"/><path d="M-1087.39-932.9h0" transform="translate(1188.266 997.625)" fill="#5a5694"/><path d="M-1085.886-934.385c-2.553-6.125,1.1,8.834,0,0" transform="translate(1189.183 996.392)" fill="#5a5694"/><path d="M-1085.693-931.641h0" transform="translate(1189.291 998.035)" fill="#5a5694"/><path d="M-1081.634-933.059c-3.758-9.4,0,8.793,0,0" transform="translate(1190.98 996.427)" fill="#5a5694"/><path d="M-1085.1-930.79a3.562,3.562,0,0,0-.3-1.21c.151.454.151.907.3,1.21" transform="translate(1189.906 998.393)" fill="#5a5694"/><path d="M-1082.854-922.1c-6.667,6.665,4.36,2.379,0,0" transform="translate(1190.083 1003.466)" fill="#5a5694"/><path d="M-1084-926.5h0" transform="translate(1190.624 1001.211)" fill="#5a5694"/><path d="M-1083.3-925.1c.46,2.3,1.578,6.018,5.747,3.932a14.514,14.514,0,0,0-5.747-3.932" transform="translate(1190.982 1001.929)" fill="#5a5694"/><path d="M-1082.241-931.7h0" transform="translate(1190.982 998.547)" fill="#5a5694"/><path d="M-1083-926.9h0" transform="translate(1191.136 1001.006)" fill="#5a5694"/><path d="M-1076.913-909.624c-2.21-2.946,10.339,22.6,15.426,18.149,6.978-6.107-15.2-25.68-15.426-18.149" transform="translate(1194.123 1008.987)" fill="#5a5694"/><path d="M-1065.734-900c-1.723.86,1.789,1.791,0,0" transform="translate(1199.731 1014.79)" fill="#5a5694"/><path d="M-1060.339-900.6h0" transform="translate(1202.049 1014.482)" fill="#5a5694"/><path d="M-1058.438-902.843q-3.87,4.721-.076,8,1.643-2.872,4.31.472c4.271-4.271,1.308-9.657-4.235-8.469" transform="translate(1202.72 1013.247)" fill="#5a5694"/><path d="M-1056.236-957.745c7.054,1.175-1.544-4.891,0,0" transform="translate(1204.752 984.211)" fill="#5a5694"/><path d="M-1051.6-910.149h0" transform="translate(1207.225 1009.512)" fill="#5a5694"/><path d="M-1048.862-911.312c-2.969-2.226-1.057,3.173,0,0" transform="translate(1207.814 1008.709)" fill="#5a5694"/><path d="M-1042.581-915.268c-6.913-10.054,5.771,15,0,0" transform="translate(1210.758 1005.708)" fill="#5a5694"/><path d="M-992.852-896.7q-4.694,3.977-1.512,9.679a9.727,9.727,0,0,0,1.512-9.679" transform="translate(1235.893 1016.481)" fill="#5a5694"/><path d="M-992.5-895.6h0" transform="translate(1237.353 1017.044)" fill="#5a5694"/><path d="M-984.7-953.9h0" transform="translate(1241.503 987.172)" fill="#5a5694"/><path d="M-983.8-954.8h0" transform="translate(1241.964 986.711)" fill="#5a5694"/><path d="M-983.3-960.5h0" transform="translate(1242.221 983.79)" fill="#5a5694"/><path d="M-983.546-921.9h0" transform="translate(1241.862 1003.568)" fill="#5a5694"/><path d="M-982-956h0" transform="translate(1242.887 986.096)" fill="#5a5694"/><path d="M-976.2-945.1h0" transform="translate(1245.858 991.681)" fill="#5a5694"/><path d="M-1049.83-916.543a8.766,8.766,0,0,1,3.781-6.806c-3.563,5.938,2.7-7.09,4.688-9.074-5.928,26.675,29.446,7.837,34.842,6.561,18.757-4.442,13.828,6.23,26.429-9.983,4.7-6.042,5.987-23.052,13.516-26.674,11.709-5.632,14.567,7.2,20.19,9.074.38-.464-7.778.913-8.167,1.059.318.127,20.755,36.4,21.627,35.087-2.855,4.894-9.788-.457-12.25-1.513,10.28,15.419-13.746,27.615-17.771,36.146-2.208,4.681,3.419,8.445-.681,14.821-.284.443-20.257,20.441-19.963,16.334.685-6.167-4.034-9.935-3.176-11.494-1.664,2.614-12.863,3.228-14.821-3.63,0,18.595-16.294-3.111-15.426-1.664-2.913,7.12-13.061-.092-16.485,2.571-9.785-11.565,1.827-20.379-10.587-27.828,3.4,2.264-7.569-21.166-5.747-22.988" transform="translate(1208.026 982.029)" fill="#5a5694"/><path d="M-986.3-955.382c0-2.527,8.052,3.451,0,0" transform="translate(1240.683 986.083)" fill="#5a5694"/><path d="M-982.7-961.1h0" transform="translate(1242.528 983.483)" fill="#5a5694"/><path d="M-856.56-870.432c.744,4.462,1.877-4.933,3.327-7.108,1.134-1.892,6.47,11.916,1.21,11.229.192.026-6.671-4.274-4.537-4.121" transform="translate(1306.949 1026.207)" fill="#5a5694"/><path d="M-854.417-870.7c7.3,4.865-4.714,1.414,0,0" transform="translate(1307.679 1029.802)" fill="#5a5694"/></g></g></svg>