<svg xmlns="http://www.w3.org/2000/svg" width="137.573" height="257.611" viewBox="0 0 137.573 257.611"><g transform="translate(0 1.505)"><g transform="translate(10.821)"><path d="M-1885.8-543.9l.2,7.368q3.342-3.814-.2-7.368" transform="translate(1900.535 754.876)" fill="none" stroke="#5a5694" stroke-linecap="round" stroke-miterlimit="3.974" stroke-width="3" stroke-dasharray="0 8"/><path d="M-1884-543.2l1.195,2.987L-1884-543.2" transform="translate(1902.32 755.57)" fill="none" stroke="#5a5694" stroke-linecap="round" stroke-miterlimit="3.974" stroke-width="3" stroke-dasharray="0 8"/><path d="M-1879.1-536.113l-1.2-2.987,1.2,2.987" transform="translate(1905.987 759.634)" fill="none" stroke="#5a5694" stroke-linecap="round" stroke-miterlimit="3.974" stroke-width="3" stroke-dasharray="0 8"/><path d="M-1875.19-531.1c-1.368,1.368,1.135,5.677,0,0" transform="translate(1910.635 767.564)" fill="none" stroke="#5a5694" stroke-linecap="round" stroke-miterlimit="3.974" stroke-width="3" stroke-dasharray="0 8"/><path d="M-1872.9-555.9h0" transform="translate(1913.323 742.981)" fill="none" stroke="#5a5694" stroke-linecap="round" stroke-miterlimit="3.974" stroke-width="3" stroke-dasharray="0 8"/><path d="M-1873-557.8h0" transform="translate(1913.224 741.097)" fill="none" stroke="#5a5694" stroke-linecap="round" stroke-miterlimit="3.974" stroke-width="3" stroke-dasharray="0 8"/><path d="M-1855.29-575.867c2.776,0-1.167-4.67,0,0" transform="translate(1930.56 721.131)" fill="none" stroke="#5a5694" stroke-linecap="round" stroke-miterlimit="3.974" stroke-width="3" stroke-dasharray="0 8"/><path d="M-1853.4-574.8h0" transform="translate(1932.653 724.246)" fill="none" stroke="#5a5694" stroke-linecap="round" stroke-miterlimit="3.974" stroke-width="3" stroke-dasharray="0 8"/><path d="M-1893.2-618.089c4.369,9.833,7.125-13.708,7.142-13.74,5.126-8.314,8.3-3.895,16.753-6.571,6.828-2.162,14.877-17.842,23.3-8.513,3.327,3.686-1.959,7.039-.2,9.21,2.587,3.19,6.44,1.7,7.991,3.21,5.343,5.215,4.088,5.946,3.035,16.354-.281,2.786-4.128,15.693-2.823,17.374,3.915,5.048,13.433-9.506,17.921-10.118,3.766-.514,7.358,3.8,12.706,2.949,7.384-1.175,1.268-9.425,12.545-5.775,9.769,3.162,12.368,16.567,14.705,23.822,2.661,8.25,6.962,13.565,9.622,19.224,4.172,8.877,3.835,21.95-6.207,25.853-4,1.555-15.022-2.386-19.913-1.394-8.658,1.756-14.311,14.935-20.709,14.935,1.74,6.529,10.553,26.287,8.961,33.055.231-2.073-3.459-9.21-5.376-9.757,0,3.471-6.577-5.112-9.618-6.41-3.871-1.651-10.544.749-13.879-1.755-3.987-2.991,0-8.883,0-14.138-3.545,2.364-6.954-2.78-11.426.671-4.4,3.4-3.033,8.541-3.807,14.761-1.613,12.947-8.537,24.339-11.251,37.436-.811,3.909-2.68,12.1.2,16.627,2.746,4.313,6.737,1.324,8.288,3.286,5.43,6.86,11.529,26.3,11.027,35.345-2.015-.337-2.762-10.7-4.978-9.16-8.722,6.105,16.687,14.6,17.075,14.859,6.4,4.235,14.791,10.329,8.624,18.569-.147.2-7.39.026-7.654-.024l-2.911,2.439q-4.451-1.732-1.195-5.576c-.144-.09-10.641-16-13.579-12.059a39.467,39.467,0,0,1-1.356,4.293c0-1.918-8.292-15.817-9.359-16.528,0-.325-13.214-19.489-16.727-13.342-9.952-2.073,4.154-39.449,7.64-45.974,2.686-5.022,9.19-9.309,10.193-15.1.982-5.673-4.22-12.123-5.289-17.384-1.422-7-.886-13.76-3.477-20.458-2.766-7.151-12.31-11.555-12.453-19.964-.058-3.347,13.71-20.54,9.956-24.294-3.226,9.678-4.1-5.6-5.177-6.97-3.2-4.056-7.643-8.045-10.168-12.557-2.019-3.606-7.661-14.009-8.152-16.715" transform="translate(1893.2 649.85)" fill="none" stroke="#5a5694" stroke-linecap="round" stroke-miterlimit="3.974" stroke-width="3" stroke-dasharray="0 8"/></g><g transform="translate(0 1.082)"><path d="M-1885.8-543.9l.2,7.368q3.342-3.814-.2-7.368" transform="translate(1900.535 754.876)" fill="#5a5694"/><path d="M-1884-543.2l1.195,2.987L-1884-543.2" transform="translate(1902.32 755.57)" fill="#5a5694"/><path d="M-1879.1-536.113l-1.2-2.987,1.2,2.987" transform="translate(1905.987 759.634)" fill="#5a5694"/><path d="M-1875.19-531.1c-1.368,1.368,1.135,5.677,0,0" transform="translate(1910.635 767.564)" fill="#5a5694"/><path d="M-1872.9-555.9h0" transform="translate(1913.323 742.981)" fill="#5a5694"/><path d="M-1873-557.8h0" transform="translate(1913.224 741.097)" fill="#5a5694"/><path d="M-1855.29-575.867c2.776,0-1.167-4.67,0,0" transform="translate(1930.56 721.131)" fill="#5a5694"/><path d="M-1853.4-574.8h0" transform="translate(1932.653 724.246)" fill="#5a5694"/><path d="M-1893.2-618.089c4.369,9.833,7.125-13.708,7.142-13.74,5.126-8.314,8.3-3.895,16.753-6.571,6.828-2.162,14.877-17.842,23.3-8.513,3.327,3.686-1.959,7.039-.2,9.21,2.587,3.19,6.44,1.7,7.991,3.21,5.343,5.215,4.088,5.946,3.035,16.354-.281,2.786-4.128,15.693-2.823,17.374,3.915,5.048,13.433-9.506,17.921-10.118,3.766-.514,7.358,3.8,12.706,2.949,7.384-1.175,1.268-9.425,12.545-5.775,9.769,3.162,12.368,16.567,14.705,23.822,2.661,8.25,6.962,13.565,9.622,19.224,4.172,8.877,3.835,21.95-6.207,25.853-4,1.555-15.022-2.386-19.913-1.394-8.658,1.756-14.311,14.935-20.709,14.935,1.74,6.529,10.553,26.287,8.961,33.055.231-2.073-3.459-9.21-5.376-9.757,0,3.471-6.577-5.112-9.618-6.41-3.871-1.651-10.544.749-13.879-1.755-3.987-2.991,0-8.883,0-14.138-3.545,2.364-6.954-2.78-11.426.671-4.4,3.4-3.033,8.541-3.807,14.761-1.613,12.947-8.537,24.339-11.251,37.436-.811,3.909-2.68,12.1.2,16.627,2.746,4.313,6.737,1.324,8.288,3.286,5.43,6.86,11.529,26.3,11.027,35.345-2.015-.337-2.762-10.7-4.978-9.16-8.722,6.105,16.687,14.6,17.075,14.859,6.4,4.235,14.791,10.329,8.624,18.569-.147.2-7.39.026-7.654-.024l-2.911,2.439q-4.451-1.732-1.195-5.576c-.144-.09-10.641-16-13.579-12.059a39.467,39.467,0,0,1-1.356,4.293c0-1.918-8.292-15.817-9.359-16.528,0-.325-13.214-19.489-16.727-13.342-9.952-2.073,4.154-39.449,7.64-45.974,2.686-5.022,9.19-9.309,10.193-15.1.982-5.673-4.22-12.123-5.289-17.384-1.422-7-.886-13.76-3.477-20.458-2.766-7.151-12.31-11.555-12.453-19.964-.058-3.347,13.71-20.54,9.956-24.294-3.226,9.678-4.1-5.6-5.177-6.97-3.2-4.056-7.643-8.045-10.168-12.557-2.019-3.606-7.661-14.009-8.152-16.715" transform="translate(1893.2 649.85)" fill="#5a5694"/></g></g></svg>