<svg xmlns="http://www.w3.org/2000/svg" width="125.984" height="108.382" viewBox="0 0 125.984 108.382"><g transform="translate(0 1.495)"><g transform="translate(0)"><path d="M-1324.318-60.732a22.8,22.8,0,0,0,0-6.194c-11.078-.462,68.671-29.8,61.939-19.145-.192,2.855,14.218,10.409,17,10.1-9.451,1.05,37.27-24.314,33.4-18.827-5.009,30.052,12.467,57-25.057,67.007,1.689,2.252-.281,5.068.845,7.32-22.72-5.679-6.287,8.35-5.631,16.892-2.815.282-.563,2.252-.845,4.5-3.987-1.14-21.721-2.742-23.086-4.223-2.6,2.6-20.13,23.3-26.746,6.757,1.129,6.205-3.866-17.6-10.136-5.068.56.481-12.512-19.148-7.039-19.989-1.407-.845-2.815,0-3.1,1.689,2.168-8.674-10.4-35.691-11.543-40.823" transform="translate(1325.376 95.576)" fill="#5a5694"/><path d="M-1324.318-60.732a22.8,22.8,0,0,0,0-6.194c-11.078-.462,68.671-29.8,61.939-19.145-.192,2.855,14.218,10.409,17,10.1-9.451,1.05,37.27-24.314,33.4-18.827-5.009,30.052,12.467,57-25.057,67.007,1.689,2.252-.281,5.068.845,7.32-22.72-5.679-6.287,8.35-5.631,16.892-2.815.282-.563,2.252-.845,4.5-3.987-1.14-21.721-2.742-23.086-4.223-2.6,2.6-20.13,23.3-26.746,6.757,1.129,6.205-3.866-17.6-10.136-5.068.56.481-12.512-19.148-7.039-19.989-1.407-.845-2.815,0-3.1,1.689,2.168-8.674-10.4-35.691-11.543-40.823" transform="translate(1336.197 95.576)" fill="none" stroke="#5a5694" stroke-linecap="round" stroke-miterlimit="3.974" stroke-width="3" stroke-dasharray="0 8"/></g></g></svg>